<?xml version="1.0" encoding="UTF-8"?>
<svg id="Layer_1" data-name="Layer 1" xmlns="http://www.w3.org/2000/svg" viewBox="0 0 1897.89 203.53">
  <defs>
    <style>
      .cls-1 {
        fill: #808285;
      }

      .cls-2 {
        fill: #7a59ff;
      }
    </style>
  </defs>
  <g>
    <g>
      <path d="m1008.78,93.32v-.52c12.57-3.91,20.36-12.57,20.36-26.57,0-9.01-3-16.28-8.13-21.59-7.1-7.44-17.16-10.98-30.45-10.98h-53.65v126.57h56.47c13.63,0,24.6-4.44,31.7-12.06,5.84-6.19,9.21-14.51,9.21-24.23,0-16.99-11.17-27.28-25.51-30.64Zm-55.93-45.84h37.88c14.17,0,22.49,7.44,22.49,19.66,0,13.09-9.21,20.7-24.6,20.7h-35.77v-40.36Zm59.66,92.05c-4.25,4.07-10.8,6.38-19.84,6.38h-39.83v-44.61h38.77c15.4,0,26.54,7.79,26.54,23.55,0,6.01-2.11,10.97-5.65,14.68Z"/>
      <path d="m1143.68,132.46c-1.25-18.76-5.31-27.62-18.24-32.21v-.54c15.22-4.96,21.95-15.93,21.95-31.33,0-20.72-15.03-34.69-37.34-34.69h-59.13v126.57h15.94v-53.47h35.23c17,0,24.43,6.55,25.66,25.14,1.42,21.24,1.94,26.03,4.61,28.33h17.17v-.71c-2.31-1.6-4.42-6.73-5.84-27.08Zm-39.29-38.6h-37.54v-46.38h38.42c18.57,0,25.66,7.8,25.66,23.2,0,14.33-8.86,23.17-26.54,23.17Z"/>
      <path d="m1167.05,33.68v126.57h15.92V33.68h-15.92Z"/>
      <path d="m1222.98,145.55V33.68h-15.93v126.57h82.3v-14.7h-66.37Z"/>
      <path d="m1321.04,145.55V33.68h-15.93v126.57h82.3v-14.7h-66.37Z"/>
      <path d="m1497.87,33.68h-17.89l-46.55,126.57h16.3l13.62-38.59h50.44l13.46,38.59h17.36l-46.73-126.57Zm-29.92,75.06l15.05-42.5c2.48-7.24,5.84-17.87,5.84-17.87h.35s3.19,10.8,5.67,17.87l14.51,42.5h-41.42Z"/>
      <path d="m1642.3,33.68v104.26h-.35s-4.96-9.72-9.2-16.28l-57.7-87.98h-16.82v126.57h14.86V56.34h.37s5.3,9.55,9.38,15.74l58.07,88.17h16.28V33.68h-14.88Z"/>
      <path d="m1772.74,113.87c-1.57,18.59-12.91,34.87-36.8,34.87-26.37,0-43.53-20.9-43.53-51.86s15.57-52.23,43.36-52.23c19.99,0,32.56,10.8,35.58,26.54h15.57c-3.36-23.35-21.24-40.34-50.8-40.34-37.69,0-60.01,28.85-60.01,66.02s23.38,65.85,59.3,65.85c16.1,0,29.05-4.62,37.88-13.28,9.03-8.86,15.05-23.01,15.22-35.58h-15.76Z"/>
      <path d="m1822.32,145.55v-44.42h66.73v-13.46h-66.73v-40.02h73.46v-13.97h-89.39v126.57h91.5v-14.7h-75.57Z"/>
    </g>
    <path d="m1462.16,110c-20.47-3.73-29.9-6.78-35.34-16.02-5.78-9.83-7.76-27.35-10-62.9-.17-2.63-2.14-4.67-4.52-4.67s-4.35,2.04-4.52,4.67c-4.4,69.82-7.39,72-45.36,78.92-2.19.4-3.79,2.5-3.79,4.95s1.61,4.56,3.79,4.95c20.47,3.73,29.91,6.78,35.35,16.04,5.79,9.85,7.77,27.37,10.01,62.91.17,2.63,2.14,4.67,4.52,4.67s4.35-2.04,4.52-4.67c4.4-69.85,7.39-72.03,45.34-78.95,2.19-.4,3.79-2.5,3.79-4.95s-1.61-4.56-3.79-4.95Z"/>
    <path class="cls-2" d="m1039.84,68.19c11.37-7.87,17.24-10.86,24.14-9.08,7.34,1.9,16.5,9.21,34.25,24.86,1.31,1.16,3.2,1.19,4.32.07s1.09-3-.07-4.32c-30.74-34.87-30.36-37.3-15.77-58.4.84-1.22.61-2.96-.55-4.11-1.16-1.16-2.9-1.39-4.11-.55-11.37,7.87-17.24,10.86-24.15,9.07-7.35-1.91-16.51-9.21-34.27-24.86-1.31-1.16-3.2-1.19-4.32-.07s-1.09,3,.07,4.32c30.75,34.89,30.38,37.32,15.79,58.4-.84,1.22-.61,2.96.55,4.11,1.16,1.16,2.9,1.39,4.11.55Z"/>
  </g>
  <g>
    <g>
      <path d="m10.29,151.76h-5.05c-1.55,0-2.81-.49-3.78-1.46s-1.46-2.23-1.46-3.78V42.09c0-1.55.49-2.81,1.46-3.78.97-.97,2.23-1.46,3.78-1.46h5.05v114.91Zm0-114.91v-5.24c0-1.55.49-2.81,1.46-3.78s2.23-1.46,3.79-1.46h52.41c1.55,0,2.81.49,3.78,1.46.97.97,1.46,2.23,1.46,3.78v5.24H10.29Zm0,114.91h62.89v5.24c0,1.55-.49,2.81-1.46,3.78-.97.97-2.23,1.46-3.78,1.46H15.53c-1.55,0-2.81-.49-3.79-1.46-.97-.97-1.46-2.23-1.46-3.78v-5.24Zm62.89-114.91h5.05c1.55,0,2.81.49,3.78,1.46.97.97,1.46,2.23,1.46,3.78v5.24h-5.05c-1.55,0-2.81-.49-3.78-1.46-.97-.97-1.46-2.23-1.46-3.78v-5.24Zm0,114.91v-5.24c0-1.55.49-2.81,1.46-3.79.97-.97,2.23-1.46,3.78-1.46h5.05v5.24c0,1.55-.49,2.81-1.46,3.78s-2.23,1.46-3.78,1.46h-5.05Zm10.29-104.43h5.24c1.55,0,2.81.49,3.78,1.46.97.97,1.46,2.23,1.46,3.79v5.24h-5.24c-1.55,0-2.81-.49-3.78-1.46-.97-.97-1.46-2.23-1.46-3.78v-5.24Zm0,93.94v-5.24c0-1.55.49-2.81,1.46-3.79.97-.97,2.23-1.46,3.78-1.46h5.24v5.24c0,1.55-.49,2.81-1.46,3.78s-2.23,1.46-3.78,1.46h-5.24Zm10.48-83.46h5.24c1.55,0,2.81.49,3.78,1.46.97.97,1.46,2.23,1.46,3.79v62.5c0,1.55-.49,2.81-1.46,3.78s-2.23,1.46-3.78,1.46h-5.24V57.81Z"/>
      <path d="m114.91,26.37h10.48v135.87h-10.48V26.37Z"/>
      <path d="m135.87,52.57c0-1.55.49-2.81,1.46-3.79.97-.97,2.23-1.46,3.78-1.46h5.24v93.94h5.24c1.55,0,2.81.49,3.78,1.46.97.97,1.46,2.23,1.46,3.79v5.24h-5.24c-1.55,0-2.81-.49-3.78-1.46-.97-.97-1.46-2.23-1.46-3.78v-5.05h-5.24c-1.55,0-2.81-.49-3.78-1.46s-1.46-2.23-1.46-3.78V52.57Zm20.96-10.48c0,1.55-.49,2.81-1.46,3.78-.97.97-2.23,1.46-3.78,1.46h-5.24v-5.24c0-1.55.49-2.81,1.46-3.78.97-.97,2.23-1.46,3.78-1.46h5.24v5.24Zm0-10.48c0-1.55.49-2.81,1.46-3.78.97-.97,2.23-1.46,3.78-1.46h52.21c1.55,0,2.81.49,3.78,1.46.97.97,1.46,2.23,1.46,3.78v5.24h-62.69v-5.24Zm5.24,130.63c-1.55,0-2.81-.49-3.78-1.46-.97-.97-1.46-2.23-1.46-3.78v-5.24h52.21v5.24c0,1.55-.49,2.81-1.46,3.78-.97.97-2.23,1.46-3.78,1.46h-41.73Zm62.5-62.69c1.55,0,2.81.49,3.78,1.46.97.97,1.46,2.23,1.46,3.78v5.24h-31.25v-10.48h26.01Zm-5.24,36.49c0-1.55.49-2.81,1.46-3.79.97-.97,2.23-1.46,3.78-1.46h5.24v10.48h-10.29v5.24c0,1.55-.49,2.81-1.46,3.78-.97.97-2.23,1.46-3.78,1.46h-5.24v-5.24c0-1.55.49-2.81,1.46-3.79.97-.97,2.23-1.46,3.78-1.46h5.05v-5.24Zm5.44-88.7c-1.55,0-2.81-.49-3.78-1.46-.97-.97-1.46-2.23-1.46-3.78v-5.24h5.05c1.55,0,2.81.49,3.78,1.46.97.97,1.46,2.23,1.46,3.78v5.24h-5.05Zm10.29,0c1.55,0,2.81.49,3.78,1.46.97.97,1.46,2.23,1.46,3.79v15.53h-10.48v-20.77h5.24Zm0,62.69c1.55,0,2.81.49,3.78,1.46s1.46,2.23,1.46,3.78v10.29c0,1.55-.49,2.81-1.46,3.78s-2.23,1.46-3.78,1.46h-5.24v-20.77h5.24Zm0,31.25c1.55,0,2.81.49,3.78,1.46.97.97,1.46,2.23,1.46,3.79v15.72h-10.48v-20.96h5.24Z"/>
      <path d="m250.77,26.37h10.48v135.87h-10.48V26.37Z"/>
      <path d="m271.73,26.37h36.49c1.55,0,2.82.49,3.79,1.46.97.97,1.46,2.23,1.46,3.78v5.24h-41.73v-10.48Zm41.73,10.48h10.48v125.39h-10.48V36.85Zm10.48,0v-5.24c0-1.55.49-2.81,1.46-3.78.97-.97,2.23-1.46,3.78-1.46h36.49v10.48h-41.73Z"/>
      <path d="m334.43,146.52c0-1.55.49-2.81,1.46-3.79.97-.97,2.23-1.46,3.78-1.46h5.05v20.96h-10.29v-15.72Zm10.29-31.25c0-1.55.49-2.81,1.46-3.78s2.23-1.46,3.78-1.46h5.24v26.01c0,1.55-.49,2.81-1.46,3.78-.97.97-2.23,1.46-3.79,1.46h-5.24v-26.01Zm10.48-20.96c0-1.55.49-2.81,1.46-3.78s2.23-1.46,3.79-1.46h5.24v20.96h-10.48v-15.72Zm10.48-31.25c0-1.55.49-2.81,1.46-3.79.97-.97,2.23-1.46,3.78-1.46h5.24v26.01c0,1.55-.49,2.81-1.46,3.78-.97.97-2.23,1.46-3.79,1.46h-5.24v-26.01Zm0,46.97h52.21v5.24c0,1.55-.49,2.81-1.46,3.78s-2.23,1.46-3.78,1.46h-41.73c-1.55,0-2.81-.49-3.78-1.46-.97-.97-1.46-2.23-1.46-3.78v-5.24Zm10.48-67.93c0-1.55.49-2.81,1.46-3.78.97-.97,2.23-1.46,3.79-1.46h5.24v15.72c0,1.55-.49,2.81-1.46,3.78-.97.97-2.23,1.46-3.78,1.46h-5.24v-15.72Zm10.48-10.48c0-1.55.49-2.81,1.46-3.78.97-.97,2.23-1.46,3.78-1.46,1.68,0,2.98.49,3.88,1.46.9.97,1.36,2.23,1.36,3.78v5.24h-10.48v-5.24Zm15.53,5.24c1.55,0,2.82.49,3.79,1.46.97.97,1.46,2.23,1.46,3.78v15.72h-5.05c-1.55,0-2.82-.49-3.79-1.46-.97-.97-1.46-2.23-1.46-3.78v-15.72h5.05Zm10.48,20.96c1.55,0,2.81.49,3.78,1.46.97.97,1.46,2.23,1.46,3.79v26.01h-5.24c-1.55,0-2.82-.49-3.79-1.46-.97-.97-1.46-2.23-1.46-3.78v-26.01h5.24Zm10.48,31.25c1.55,0,2.81.49,3.79,1.46.97.97,1.46,2.23,1.46,3.78v15.72h-10.48v-20.96h5.24Zm5.24,20.96h5.24c1.55,0,2.82.49,3.79,1.46.97.97,1.46,2.23,1.46,3.78v26.01h-5.24c-1.55,0-2.81-.49-3.78-1.46s-1.46-2.23-1.46-3.78v-26.01Zm15.72,31.25c1.55,0,2.81.49,3.79,1.46.97.97,1.46,2.23,1.46,3.79v15.72h-10.48v-20.96h5.24Z"/>
      <path d="m459.81,26.37h10.48v125.39h-5.24c-1.55,0-2.81-.49-3.78-1.46s-1.46-2.23-1.46-3.78V26.37Zm10.48,125.39h73.18v10.48h-67.93c-1.55,0-2.82-.49-3.79-1.46s-1.46-2.23-1.46-3.78v-5.24Z"/>
      <path d="m553.95,26.37h10.48v135.87h-10.48V26.37Z"/>
      <path d="m574.91,26.37h78.42c1.55,0,2.82.49,3.79,1.46.97.97,1.46,2.23,1.46,3.78v5.24h-83.66v-10.48Zm0,135.87v-10.48h10.48v5.24c0,1.55-.49,2.81-1.46,3.78s-2.23,1.46-3.79,1.46h-5.24Zm20.96-10.48h-10.48v-5.24c0-1.55.49-2.81,1.46-3.79.97-.97,2.23-1.46,3.79-1.46h5.24v10.48Zm0-10.48v-5.24c0-1.55.49-2.81,1.46-3.79.97-.97,2.23-1.46,3.78-1.46h5.24v5.24c0,1.55-.49,2.81-1.46,3.78s-2.23,1.46-3.79,1.46h-5.24Zm0,10.48h83.66v10.48h-78.42c-1.55,0-2.81-.49-3.78-1.46-.97-.97-1.46-2.23-1.46-3.78v-5.24Zm10.48-20.96v-15.53c0-1.55.49-2.81,1.46-3.78.97-.97,2.23-1.46,3.79-1.46h5.24v15.53c0,1.55-.49,2.81-1.46,3.78-.97.97-2.23,1.46-3.78,1.46h-5.24Zm10.48-20.77v-5.24c0-1.55.49-2.81,1.46-3.78s2.23-1.46,3.78-1.46h5.24v5.24c0,1.55-.49,2.81-1.46,3.78s-2.23,1.46-3.79,1.46h-5.24Zm10.48-10.48v-15.72c0-1.55.49-2.81,1.46-3.78.97-.97,2.23-1.46,3.79-1.46h5.24v15.72c0,1.55-.49,2.81-1.46,3.78-.97.97-2.23,1.46-3.78,1.46h-5.24Zm10.48-20.96v-15.53c0-1.55.49-2.81,1.46-3.79.97-.97,2.23-1.46,3.78-1.46h5.05v15.53c0,1.55-.49,2.81-1.46,3.78-.97.97-2.23,1.46-3.78,1.46h-5.05Zm10.29-20.77v-5.24c0-1.55.49-2.81,1.46-3.79.97-.97,2.23-1.46,3.78-1.46h5.24v5.24c0,1.55-.49,2.81-1.46,3.78s-2.23,1.46-3.79,1.46h-5.24Zm10.48-20.96h10.48v5.24c0,1.55-.49,2.81-1.46,3.78s-2.23,1.46-3.78,1.46h-5.24v-10.48Zm20.96-10.48v10.48h-10.48v-5.24c0-1.55.49-2.81,1.46-3.78.97-.97,2.23-1.46,3.79-1.46h5.24Z"/>
      <path d="m700.49,89.06h-5.24c-1.55,0-2.81-.49-3.78-1.46-.97-.97-1.46-2.23-1.46-3.78v-41.73c0-1.55.49-2.81,1.46-3.78.97-.97,2.23-1.46,3.78-1.46h5.24v52.21Zm0,62.69h-5.24c-1.55,0-2.81-.49-3.78-1.46s-1.46-2.23-1.46-3.78v-41.73c0-1.55.49-2.81,1.46-3.78s2.23-1.46,3.78-1.46h5.24v52.21Zm0-114.91v-5.24c0-1.55.49-2.81,1.46-3.78.97-.97,2.23-1.46,3.79-1.46h78.42v10.48h-83.66Zm0,62.69v-10.48h73.18v10.48h-73.18Zm0,52.21h83.66v10.48h-78.42c-1.55,0-2.82-.49-3.79-1.46-.97-.97-1.46-2.23-1.46-3.78v-5.24Z"/>
      <path d="m804.91,151.76h-5.05c-1.55,0-2.81-.49-3.78-1.46s-1.46-2.23-1.46-3.78V42.09c0-1.55.49-2.81,1.46-3.78.97-.97,2.23-1.46,3.78-1.46h5.05v114.91Zm0-114.91v-5.24c0-1.55.49-2.81,1.46-3.78.97-.97,2.23-1.46,3.78-1.46h52.41c1.55,0,2.81.49,3.78,1.46.97.97,1.46,2.23,1.46,3.78v5.24h-62.89Zm0,114.91h62.89v5.24c0,1.55-.49,2.81-1.46,3.78s-2.23,1.46-3.78,1.46h-52.41c-1.55,0-2.81-.49-3.78-1.46-.97-.97-1.46-2.23-1.46-3.78v-5.24Zm62.89-114.91h5.05c1.55,0,2.81.49,3.78,1.46.97.97,1.46,2.23,1.46,3.78v5.24h-5.05c-1.55,0-2.81-.49-3.78-1.46-.97-.97-1.46-2.23-1.46-3.78v-5.24Zm0,114.91v-5.24c0-1.55.49-2.81,1.46-3.79.97-.97,2.23-1.46,3.78-1.46h5.05v5.24c0,1.55-.49,2.81-1.46,3.78s-2.23,1.46-3.78,1.46h-5.05Zm10.29-104.43h5.24c1.55,0,2.81.49,3.79,1.46.97.97,1.46,2.23,1.46,3.79v5.24h-5.24c-1.55,0-2.82-.49-3.79-1.46s-1.46-2.23-1.46-3.78v-5.24Zm0,93.94v-5.24c0-1.55.49-2.81,1.46-3.79.97-.97,2.23-1.46,3.79-1.46h5.24v5.24c0,1.55-.49,2.81-1.46,3.78-.97.97-2.23,1.46-3.79,1.46h-5.24Zm10.48-83.46h5.24c1.55,0,2.82.49,3.79,1.46.97.97,1.46,2.23,1.46,3.79v62.5c0,1.55-.49,2.81-1.46,3.78-.97.97-2.23,1.46-3.79,1.46h-5.24V57.81Z"/>
    </g>
    <path class="cls-1" d="m884.2,79.08l6.92-43.52c.42-2.67,4.26-2.67,4.69,0l6.83,42.96c.53,3.33,3.31,5.85,6.68,6.04l120.59,6.92c3.56.2,3.56,5.45,0,5.65l-120.59,6.92c-3.37.19-6.15,2.71-6.68,6.04l-6.83,42.96c-.42,2.67-4.26,2.67-4.69,0l-6.92-43.52c-.49-3.07-2.89-5.48-5.96-5.96l-43.52-6.92c-2.67-.42-2.67-4.26,0-4.69l43.52-6.92c3.07-.49,5.48-2.89,5.96-5.96Z"/>
  </g>
</svg>