<?xml version="1.0" encoding="UTF-8"?>
<svg id="Layer_1" data-name="Layer 1" xmlns="http://www.w3.org/2000/svg" viewBox="0 0 1848.88 894.29">
  <defs>
    <style>
      .cls-1 {
        fill: #fff;
      }
    </style>
  </defs>
  <g>
    <circle cx="505.71" cy="133.36" r="84.03"/>
    <g>
      <path class="cls-1" d="m476.93,156.15c-1.7-.93-2.55-1.27-3.65-1.27-1.61,0-2.63.85-4.24,2.55l-.85-.76c1.78-3.4,2.89-6.71,3.91-12.14l9-49.49h-7.98v-1.19c2.46,0,4.92-.68,7.56-1.95,2.63-1.27,4.33-2.8,5.18-4.58h1.1l-7.73,42.36h.34c2.29-4.58,5.09-8.57,8.4-11.89,3.23-3.31,6.79-5.01,10.61-5.01,6.37,0,10.27,5.26,10.27,14.52.25,14.52-10.7,31.5-24.03,30.99-3.31,0-5.18-.76-7.9-2.12Zm-1.53-5.01c3.65,3.74,5.94,5.6,10.02,5.6,10.53.42,18.34-16.04,18.17-28.44,0-7.47-2.55-11.89-6.96-11.89-2.46,0-5.18,1.36-8.15,3.99s-5.52,5.94-7.56,9.93c-2.29,4.41-3.4,8.07-4.33,13.75l-1.19,7.05Z"/>
      <path class="cls-1" d="m478.63,172.11c0-1.95,1.61-3.48,3.57-3.48,1.7,0,2.29.85,3.65,3.14,2.04,3.74,4.16,6.03,10.02,6.03,3.65,0,7.47-.85,11.46-2.55,3.99-1.7,7.39-4.07,10.02-7.13,2.29-2.55,3.74-5.35,4.5-8.41.68-3.14,1.02-7.22,1.02-12.22,0-7.56-.76-14.6-2.21-20.97s-3.65-9.59-6.62-9.59c-2.38,0-4.24,2.12-5.18,6.54l-1.27-.68c1.02-6.11,3.74-10.02,7.81-10.02,8.07-.25,11.97,17.32,11.89,34.72,0,4.07-.34,7.81-.93,11.29l.85.34c3.57-4.84,6.71-10.1,9.34-15.88,2.63-5.69,3.91-10.87,3.91-15.37,0-4.75-1.44-6.79-3.82-8.91-1.36-1.36-1.95-2.04-1.95-3.31,0-1.78,1.27-2.89,2.89-2.89,2.97,0,5.69,3.31,5.69,10.19,0,5.35-1.36,11.38-4.07,18.17-2.8,6.79-6.37,13.07-10.87,18.93-9.51,12.31-21.39,19.36-33.53,19.36-8.23,0-16.13-3.14-16.13-7.3Z"/>
    </g>
  </g>
  <g>
    <g>
      <path d="m580.52,134.38c-1.36-71.78,56.47-127.57,122.47-126.21,9.19,0,20.07,1.36,33,3.74,7.83,1.7,13.95,2.38,17.69,2.38,8.51,0,13.27-1.7,13.27-8.17,0-1.02-.34-2.38-.68-4.76l5.44-1.36,18.71,70.42-5.78,1.7c-14.97-39.12-46.95-56.81-82.67-56.81-59.19-1.02-99.34,53.75-98.66,117.03-1.02,69.4,48.31,116.69,102.06,115.67,35.04,0,69.4-17.69,87.43-50.69l5.1,3.4c-21.43,39.12-56.81,57.83-97.3,57.83-63.96,1.02-121.45-52.39-120.09-124.17Z"/>
      <path d="m950.66,246.64c23.81,0,28.58-4.08,28.58-43.21v-72.46h-138.8v72.46c0,39.12,5.1,43.21,28.58,43.21v5.78h-76.89v-5.78c23.81,0,28.58-4.08,28.58-43.21V63.28c0-39.12-4.76-43.21-28.58-43.21v-5.78h76.89v5.78c-22.79,0-28.58,4.42-28.58,43.21v59.87h138.8v-59.87c0-39.12-4.76-43.21-28.58-43.21v-5.78h76.88v5.78c-22.79,0-28.58,4.42-28.58,43.21v140.16c0,39.12,5.1,43.21,28.58,43.21v5.78h-76.88v-5.78Z"/>
      <path d="m1169.07,246.64c16.67,0,25.17-4.76,25.17-16.67,0-5.44-2.04-13.27-5.78-23.47l-13.95-36.4h-98.32l-11.57,29.94c-3.74,9.19-5.44,17.01-5.44,23.47,0,15.31,10.21,23.13,30.62,23.13v5.78h-72.12v-5.78c8.84,0,15.99-3.4,21.09-10.55,5.1-6.8,11.23-19.05,18.03-36.74l64.64-167.72-5.1-13.27v-2.04c6.46-3.74,9.86-7.14,13.61-13.95h2.04l78.25,204.12c13.61,34.02,15.65,38.44,33,40.14v5.78h-74.16v-5.78Zm2.72-84.03l-46.61-120.77-46.27,120.77h92.88Z"/>
      <path d="m1234.4,246.64c23.81,0,28.58-4.08,28.58-43.21V63.28c0-39.12-4.76-43.21-28.58-43.21v-5.78h89.47c51.37,0,81.65,21.77,81.65,55.79,0,31.3-25.86,53.75-67.7,59.54l38.44,48.99c16.67,21.09,28.58,35.72,36.06,44.23,7.14,8.5,13.95,14.29,19.73,18.03,5.78,3.74,12.25,5.78,19.39,5.78v5.78h-43.21c-10.21-13.95-27.22-36.74-51.37-67.7l-41.84-53.75h-32.32v72.46c0,39.12,5.1,43.21,28.58,43.21v5.78h-76.89v-5.78Zm81.99-122.81c39.12,0,67.36-18.37,67.36-52.39,0-28.92-20.75-50.01-59.2-50.01h-4.76c-31.64,0-37.08,2.72-37.08,24.83v77.57h33.68Z"/>
      <path d="m1587.87,265.35c.34-1.02.68-2.72.68-4.76,0-6.46-5.1-8.17-15.65-8.17h-137.1v-5.78c22.79,0,28.58-4.42,28.58-43.21V63.28c0-39.12-4.76-43.21-28.58-43.21v-5.78h76.89v5.78c-23.47,0-28.58,4.08-28.58,43.21v157.17c0,22.11,5.44,24.84,38.44,24.84h10.89c35.04,0,50.69-6.12,60.21-21.09,4.42-7.48,9.53-19.39,14.97-35.38l5.78,1.7-21.09,76.2-5.44-1.36Zm70.76-90.15c.34-.68.34-1.7.34-3.06,0-4.08-3.06-5.44-9.86-5.44h-99.34v-5.78c18.37,0,23.13-3.06,23.13-28.92V48.99c0-25.85-4.76-28.92-23.13-28.92v-5.78h91.17c6.46,0,9.87-2.04,9.87-5.78,0-1.36,0-2.38-.34-3.06l5.44-1.02,11.23,44.91-5.78,1.7c-6.46-21.77-14.63-29.6-41.84-29.6h-10.55c-18.71,0-20.07,1.7-20.07,16.67v46.95h12.93c22.45,0,24.83-6.12,24.83-23.47h5.78v56.47h-5.78c0-21.77-2.04-25.51-24.83-25.51h-12.93v50.01c0,15.31,1.36,17.01,20.07,17.01h17.69c26.2,0,36.06-9.19,45.93-40.48l6.12,1.36-14.97,56.13-5.1-1.36Z"/>
      <path d="m1671.56,180.99l6.8-1.02c11.23,46.27,34.7,71.44,75.86,71.44,38.44,0,60.55-23.47,60.55-53.75,0-28.58-19.39-44.57-61.92-59.54-49.67-17.35-78.25-33-79.61-69.4,0-33.34,30.62-60.56,73.48-60.56,11.23,0,23.47,2.04,36.06,6.12,6.46,1.7,10.21,2.72,11.91,2.72,6.46,0,9.53-5.44,9.19-13.27l6.46-.68,16.33,70.76-6.8,1.7c-11.23-37.08-36.06-60.22-73.14-60.22-33.68,0-53.41,19.39-53.41,46.27,0,24.49,16.67,40.14,61.24,55.11,56.13,19.05,80.63,40.82,80.63,73.82,0,38.1-34.02,68.04-81.99,68.04-19.05,0-31.64-4.08-45.59-10.54-1.36-.34-9.19-4.42-14.29-4.42-6.8,0-10.89,5.1-11.23,12.93l-5.78.34-4.76-75.86Z"/>
    </g>
    <path d="m368.44,700.24c-2-105.26,82.81-187.07,179.58-185.08,13.47,0,29.44,2,48.39,5.49,11.48,2.49,20.45,3.49,25.94,3.49,12.47,0,19.45-2.49,19.45-11.97,0-1.49-.5-3.49-1-6.98l7.98-2,27.44,103.26-8.48,2.49c-21.95-57.37-68.84-83.31-121.22-83.31-86.81-1.49-145.67,78.82-144.67,171.61-1.5,101.77,70.84,171.11,149.66,169.61,51.38,0,101.77-25.94,128.2-74.33l7.48,4.99c-31.43,57.37-83.31,84.81-142.67,84.81-93.78,1.5-178.09-76.82-176.09-182.08Z"/>
    <path d="m914.21,892.3c.5-1.49,1-3.99,1-6.98,0-9.48-7.48-11.97-22.95-11.97h-213.51v-8.48c45.4-1.5,52.88-4.99,54.37-63.36v-205.53c-1.49-58.37-7.98-61.86-54.37-63.36v-8.48h147.66v8.48c-58.86,2-62.36,3.49-64.35,63.36v230.47c0,32.43,7.98,36.42,56.37,36.42h15.96c74.83-2,86.8-15.47,109.25-80.81l8.48,2.99-29.93,109.25-7.98-2Zm106.26-166.66l-92.91-233.32c-1.84-4.61-8.39-4.56-10.15.08l-88.69,233.32c-1.35,3.56,1.28,7.38,5.09,7.38h181.59c3.85,0,6.48-3.88,5.06-7.46Z"/>
    <path d="m1012.99,864.86c34.92,0,41.9-5.99,41.9-63.36v-205.53c0-57.37-6.99-63.36-41.9-63.36v-8.48h131.2c75.32,0,119.72,31.93,119.72,81.81,0,45.9-37.91,78.82-99.27,87.3l56.37,71.84c24.44,30.93,41.9,52.38,52.88,64.85,10.48,12.47,20.45,20.95,28.94,26.44,8.48,5.49,17.96,8.48,28.43,8.48v8.48h-63.35c-14.97-20.45-39.91-53.88-75.33-99.27l-61.36-78.82h-47.39v106.26c0,57.37,7.48,63.36,41.9,63.36v8.48h-112.74v-8.48Zm120.22-180.09c57.37,0,98.77-26.94,98.77-76.82,0-42.4-30.43-73.33-86.8-73.33h-6.98c-46.4,0-54.38,3.99-54.38,36.41v113.74h49.39Z"/>
    <path d="m1308.32,864.86c36.41,0,44.39-5.99,44.39-63.36v-205.53c0-57.37-7.98-63.36-44.39-63.36v-8.48h117.73v8.48c-35.42,0-44.4,6.48-44.4,63.36v96.28l123.22-111.25c14.47-12.97,21.95-23.95,21.95-32.43,0-9.98-11.48-15.96-31.43-15.96v-8.48h108.75v8.48c-19.96,0-44.4,12.97-84.81,49.39l-86.3,77.82,93.29,120.72c18.46,23.45,31.93,40.91,41.4,51.38,8.98,10.98,17.46,18.96,25.45,24.45,7.98,5.49,15.96,8.48,24.44,8.48v8.48h-58.37c-22.44-31.43-44.89-61.86-68.34-91.79l-79.32-101.77-29.93,26.44v95.28c0,57.37,7.98,63.36,44.4,63.36v8.48h-117.73v-8.48Z"/>
    <path d="m151.56,477.64c-27.62-21.89-47.49-52.2-59.95-90.26h-34.02v68.71c0,38.06,5.05,42.77,27.28,42.77v6.06H0v-6.06c22.23,0,27.96-4.71,27.96-41.09v-141.12c0-37.05-5.73-41.42-27.96-41.42v-6.06h95.99c53.55,0,83.86,23.24,83.86,57.26,0,26.61-18.19,48.84-55.91,57.26,13.81,36.04,31.66,63.99,53.55,84.54,21.89,20.55,49.51,30.99,83.53,30.99,63.99,0,116.2-40.08,124.28-105.08l5.72.67c-6.06,69.72-60.96,116.2-139.43,116.2-39.07,0-72.41-11.12-100.03-33.34Zm-63.32-97.34c35.03,0,60.29-17.85,60.29-52.54,0-30.99-19.2-51.19-53.89-51.19h-4.38c-27.62,0-32.67,4.04-32.67,25.6v78.14h30.65Zm126.3-1.35v-73.42c0-28.29-6.06-31.32-26.61-31.32v-5.05h79.15v5.05c-19.2,0-25.6,3.37-25.6,31.32v72.41c0,42.44,17.51,63.66,52.2,63.66s52.88-24.25,52.88-73.09v-62.98c0-23.24-8.76-31.32-30.31-31.32v-5.05h63.32v5.05c-17.18,0-25.6,8.76-25.6,31.32v62.64c0,55.24-22.23,85.55-69.38,85.55s-70.05-25.93-70.05-74.77Z"/>
    <path d="m387.62,434.19l6.73-1.01c12.13,46.82,37.72,70.39,76.45,70.39,36.04,0,57.26-20.54,57.26-48.84s-19.2-41.43-61.97-57.26c-50.18-17.85-77.8-37.05-77.8-71.74,0-36.71,33.34-62.64,77.13-62.64,11.45,0,23.57,2.02,36.71,6.06,1.69.34,8.76,2.69,12.46,2.69,6.4,0,10.1-5.39,9.09-13.47l6.74-1.01,16.17,70.73-7.07,1.69c-11.79-37.39-37.39-59.28-73.42-59.28-32,0-50.52,17.85-50.52,42.44,0,23.24,17.18,37.72,61.3,53.55,54.9,19.2,78.81,41.76,78.81,75.11,0,41.43-37.39,69.38-85.55,69.38-19.87,0-32.67-3.71-46.48-10.1-7.07-2.7-11.79-4.04-14.48-4.04-6.4,0-10.1,4.72-10.44,12.8l-5.72.34-5.39-75.78Z"/>
    <path d="m722.72,498.86c21.89,0,27.62-4.38,27.62-41.43v-72.75h-127.98v72.75c0,37.05,5.05,41.43,27.28,41.43v6.06h-84.54v-6.06c22.23,0,27.28-4.38,27.28-41.43v-141.45c0-36.38-5.05-40.75-27.28-40.75v-6.06h84.54v6.06c-20.55,0-27.28,4.38-27.28,40.75v60.96h127.98v-60.96c0-36.38-5.72-40.75-27.62-40.75v-6.06h84.87v6.06c-21.22,0-27.62,4.38-27.62,40.75v141.45c0,37.05,5.73,41.43,27.62,41.43v6.06h-84.87v-6.06Z"/>
    <path d="m953.4,498.86c16.5,0,24.25-4.71,24.25-16.5,0-5.73-2.02-13.47-5.73-23.58l-12.8-33.68h-93.29l-11.45,29.64c-3.37,8.76-5.05,16.17-5.05,22.23,0,14.48,9.77,21.89,29.64,21.89v6.06h-69.72v-6.06c16.5,0,24.59-12.46,38.06-47.15l60.96-157.96-6.73-17.85v-2.36c9.09-4.04,16.5-9.77,22.23-16.84h2.36l77.8,201.4c14.14,34.35,15.83,39.07,33,40.75v6.06h-83.53v-6.06Zm2.7-81.17l-43.78-113.5-43.78,113.5h87.57Z"/>
    <path d="m1039.26,498.86c23.24,0,28.97-4.38,28.97-41.43v-141.45c0-36.71-5.72-40.75-28.97-40.75v-6.06h94.64c48.84,0,74.1,21.56,74.1,51.19,0,32-30.65,51.53-57.26,54.23v1.01c31.66-.34,74.77,16.5,74.1,62.31,0,19.53-7.41,35.7-22.23,48.16-15.16,12.46-39.07,18.86-72.08,18.86h-91.27v-6.06Zm80.5-125.63c38.06,0,57.59-20.21,57.59-50.86,0-27.95-16.17-45.81-46.14-45.81-25.26,0-33.01,4.71-33.01,21.89v74.77h21.56Zm74.77,66.69c0-39.41-24.59-59.28-73.42-59.28h-22.9v93.63c0,18.52,10.44,23.24,37.39,23.24,36.71,0,58.94-21.22,58.94-57.59Z"/>
    <path d="m1389.52,517.72c.34-1.35.67-3.03.67-5.05,0-6.4-4.04-7.75-14.48-7.75h-141.79v-6.06c22.23,0,27.28-4.38,27.28-41.43v-141.45c0-36.38-5.05-40.75-27.28-40.75v-6.06h133.71c9.77,0,14.48-2.02,14.48-7.75,0-2.02-.34-3.71-.67-5.05l5.72-1.35,16.5,61.3-6.06,2.02c-15.83-33.01-23.24-40.42-65-41.76h-8.08c-30.99.67-32.67,2.36-33.68,26.61v74.43h22.23c33.01,0,37.39-8.42,37.39-37.72h6.73v81.84h-6.73c0-29.98-5.05-37.05-37.05-37.05h-22.57v86.22c0,23.57,4.04,26.61,32.67,26.61h17.51c38.73,0,52.54-10.78,65.68-46.81l6.74,2.02-18.19,66.35-5.73-1.35Z"/>
    <path d="m1579.79,517.72c.34-1.35.67-3.03.67-5.05,0-6.4-4.04-7.75-14.48-7.75h-149.2v-6.06c29.3-.67,35.03-4.04,36.04-40.75v-141.79c0-36.37-7.41-41.09-36.04-41.09v-6.06h106.77v6.06c-36.04,1.01-39.74,3.03-41.09,41.09v154.93c0,23.24,6.06,26.27,35.03,26.27h11.79c47.83-1.35,54.9-10.1,71.06-54.9l5.72,2.02-20.21,74.43-6.06-1.35Zm72.75-89.25c.34-.67.34-1.68.34-2.7,0-3.71-3.37-5.72-9.77-5.72h-101.71v-5.73c17.51,0,22.23-3.71,22.23-28.96v-80.5c0-25.26-5.05-29.64-22.23-29.64v-6.06h68.71v6.06c-17.18,0-22.23,4.38-22.23,29.64v88.92c0,17.51,1.68,19.53,19.87,19.53h14.48c26.61,0,35.36-10.78,45.81-43.11l5.72,1.68-16.17,57.93-5.05-1.35Z"/>
    <path d="m1824.96,517.72c.34-1.35.67-3.03.67-5.05,0-6.4-4.04-7.75-14.48-7.75h-141.79v-6.06c22.23,0,27.28-4.38,27.28-41.43v-141.45c0-36.38-5.05-40.75-27.28-40.75v-6.06h133.71c9.77,0,14.48-2.02,14.48-7.75,0-2.02-.34-3.71-.67-5.05l5.72-1.35,16.5,61.3-6.06,2.02c-15.83-33.01-23.24-40.42-65-41.76h-8.08c-30.99.67-32.67,2.36-33.68,26.61v74.43h22.23c33.01,0,37.39-8.42,37.39-37.72h6.73v81.84h-6.73c0-29.98-5.05-37.05-37.05-37.05h-22.57v86.22c0,23.57,4.04,26.61,32.67,26.61h17.51c38.73,0,52.54-10.78,65.68-46.81l6.74,2.02-18.19,66.35-5.73-1.35Z"/>
  </g>
</svg>