<?xml version="1.0" encoding="UTF-8"?>
<svg id="Layer_1" data-name="Layer 1" xmlns="http://www.w3.org/2000/svg" xmlns:xlink="http://www.w3.org/1999/xlink" viewBox="0 0 1850.82 459">
  <defs>
    <style>
      .cls-1 {
        fill: #fff;
      }

      .cls-2 {
        clip-path: url(#clippath);
      }

      .cls-3 {
        fill: #808285;
      }

      .cls-4 {
        fill: none;
      }

      .cls-5 {
        fill: #7a59ff;
      }
    </style>
    <clipPath id="clippath">
      <path class="cls-4" d="m881.28-2v282.51h412.03V-2h-412.03Zm96.11,45.95h-.92c14.41-8.14,30.59-15.32,48.33-21.46,3.2,1.98,6.24,4.21,9.11,6.64-14.12,4.87-27.31,10.76-39.44,17.63-5.09-1.84-10.78-2.82-17.07-2.82Zm110.58,197.4c-8.39,5.96-16.77,11.23-25.12,15.81h-6.26v3.3c-8.06,4.09-16.07,7.52-24.01,10.28v-12.76c4.65-1.25,9.34-2.77,14.04-4.55,11.95-4.52,22.69-10.25,32.09-17.06h15.98c-2.23,1.73-4.47,3.4-6.72,4.98Z"/>
    </clipPath>
  </defs>
  <g>
    <path d="m9.16,253.57H0v56.14h82.77v-10.43h-39.02s0-38.07,0-38.07h-8.78v38.07s-25.81,0-25.81,0v-45.72Z"/>
    <path d="m64.6,188.5c-12.27.8-18.06,3.46-21.08,11.92h-.35c-3.23-9.96-10.4-14.37-20.48-14.37C9.16,186.05,0,195.91,0,210.49v38.65h82.77v-10.4h-34.96s0-23.05,0-23.05c0-11.12,4.28-15.97,16.45-16.77,13.88-.95,16.99-1.29,18.51-3.01v-11.25h-.47c-1.05,1.52-4.37,2.91-17.69,3.83Zm-25.23,25.71v24.53s-30.33,0-30.33,0v-25.14c0-12.14,5.1-16.77,15.15-16.77,9.38,0,15.18,5.77,15.18,17.37Z"/>
    <path d="m0,24.79l68.76,26.62v.23S0,78.49,0,78.49v13.31h82.77v-9.38H14.71s0-.23,0-.23c0,0,6.25-2.09,10.43-3.71l57.63-22.69v-7.99S25.14,25.13,25.14,25.13c-3.96-1.52-10.43-3.71-10.43-3.71v-.23s68.06,0,68.06,0v-9.95H0v13.54Z"/>
    <path class="cls-3" d="m73.01,99.47c-15.5,12.5-23.61,18.08-30.69,18.08-7.07,0-15.18-5.58-30.69-18.08-2.38-1.92-5.83-1.74-7.99.43s-2.35,5.61-.43,7.99c12.5,15.5,18.07,23.61,18.07,30.69,0,7.08-5.58,15.19-18.08,30.69-1.92,2.38-1.74,5.83.43,7.99,2.16,2.16,5.61,2.35,7.99.43,15.5-12.5,23.61-18.08,30.7-18.08,7.08,0,15.2,5.58,30.7,18.08,2.38,1.92,5.83,1.74,7.99-.43,2.16-2.16,2.35-5.61.43-7.99-12.5-15.5-18.08-23.62-18.08-30.69,0-7.08,5.57-15.19,18.07-30.69,1.92-2.38,1.74-5.83-.43-7.99s-5.61-2.35-7.99-.43Z"/>
  </g>
  <g>
    <path d="m8.99,422.37h4.32v4.41h-4.32v-4.41Zm.04,21.61c.98-.36,2-1.2,2-3.7h-2.05v-4.41h4.32v4.54c0,3.25-1.74,5.08-4.28,5.57v-2Z"/>
    <path class="cls-5" d="m39.07,437.07h-.04c-1.38,1.78-3.74,3.65-7.66,3.65-4.37,0-7.8-2.05-7.8-6.41,0-5.44,4.28-6.55,10.02-7.44,3.25-.49,5.52-.8,5.52-3.3s-1.87-4.05-5.17-4.05c-3.74,0-5.61,1.6-5.75,5.08h-3.47c.13-4.46,3.07-7.8,9.18-7.8,4.9,0,8.51,1.83,8.51,7.31v10.96c0,1.87.45,2.9,2.45,2.45h.13v2.63c-.45.18-1.02.36-1.96.36-2.36,0-3.61-1.07-3.96-3.43Zm.09-5.3v-3.92c-1.2.76-3.3,1.34-5.26,1.69-3.61.67-6.5,1.29-6.5,4.68,0,3.07,2.41,3.74,4.77,3.74,4.81,0,6.99-3.52,6.99-6.19Z"/>
    <path d="m52.39,417.24h3.88l4.77,14.61c.67,2.05,1.51,4.86,1.51,4.86h.09s.85-2.85,1.51-4.86l4.86-14.61h3.74l-8.29,23.03h-4.01l-8.06-23.03Z"/>
    <path d="m75.29,408.42h3.61v4.46h-3.61v-4.46Zm0,8.82h3.61v23.03h-3.61v-23.03Z"/>
    <path d="m82.33,432.79h3.7c.49,4.01,3.16,5.12,6.59,5.12,3.79,0,5.35-1.65,5.35-3.79,0-2.58-1.78-3.25-6.01-4.14-4.54-.94-8.6-1.87-8.6-6.9,0-3.83,2.94-6.33,8.29-6.33,5.7,0,8.51,2.72,9.04,7.22h-3.7c-.36-3.03-2-4.37-5.44-4.37s-4.63,1.47-4.63,3.3c0,2.49,2.23,2.98,6.19,3.79,4.63.94,8.51,1.96,8.51,7.26,0,4.63-3.79,6.99-9.09,6.99-6.33,0-9.85-2.98-10.2-8.15Z"/>
    <path d="m119.75,440.28v-3.16h-.09c-1.65,2.23-3.61,3.7-6.95,3.7-4.72,0-7.75-2.85-7.75-7.62v-15.95h3.61v15.86c0,2.98,1.92,4.72,5.17,4.72,3.65,0,6.01-2.76,6.01-6.41v-14.17h3.61v23.03h-3.61Z"/>
    <path d="m142.38,437.07h-.04c-1.38,1.78-3.74,3.65-7.66,3.65-4.37,0-7.8-2.05-7.8-6.41,0-5.44,4.28-6.55,10.02-7.44,3.25-.49,5.52-.8,5.52-3.3s-1.87-4.05-5.17-4.05c-3.74,0-5.61,1.6-5.75,5.08h-3.47c.13-4.46,3.07-7.8,9.18-7.8,4.9,0,8.51,1.83,8.51,7.31v10.96c0,1.87.45,2.9,2.45,2.45h.13v2.63c-.45.18-1.02.36-1.96.36-2.36,0-3.61-1.07-3.96-3.43Zm.09-5.3v-3.92c-1.2.76-3.3,1.34-5.26,1.69-3.61.67-6.5,1.29-6.5,4.68,0,3.07,2.41,3.74,4.77,3.74,4.81,0,6.99-3.52,6.99-6.19Z"/>
    <path d="m151.11,408.42h3.61v31.85h-3.61v-31.85Z"/>
    <path d="m180.96,437.07h-.04c-1.38,1.78-3.74,3.65-7.66,3.65-4.37,0-7.8-2.05-7.8-6.41,0-5.44,4.28-6.55,10.02-7.44,3.25-.49,5.52-.8,5.52-3.3s-1.87-4.05-5.17-4.05c-3.74,0-5.61,1.6-5.75,5.08h-3.47c.13-4.46,3.07-7.8,9.18-7.8,4.9,0,8.51,1.83,8.51,7.31v10.96c0,1.87.45,2.9,2.45,2.45h.13v2.63c-.45.18-1.02.36-1.96.36-2.36,0-3.61-1.07-3.96-3.43Zm.09-5.3v-3.92c-1.2.76-3.3,1.34-5.26,1.69-3.61.67-6.5,1.29-6.5,4.68,0,3.07,2.41,3.74,4.77,3.74,4.81,0,6.99-3.52,6.99-6.19Z"/>
    <path d="m193.17,421.08h.09c1.38-2.23,3.79-4.1,6.86-4.1.67,0,1.02.09,1.47.27v3.47h-.13c-.53-.18-.89-.22-1.6-.22-3.56,0-6.68,2.67-6.68,6.99v12.79h-3.61v-23.03h3.61v3.83Z"/>
    <path d="m203.37,417.24h3.34v-7.26h3.61v7.26h4.46v2.94h-4.46v14.97c0,1.6.85,2.14,2.32,2.14.71,0,1.51-.18,1.92-.31h.13v3.12c-.85.18-1.83.31-2.9.31-2.94,0-5.08-1.2-5.08-4.46v-15.77h-3.34v-2.94Z"/>
    <path d="m218.52,408.42h3.61v4.46h-3.61v-4.46Zm0,8.82h3.61v23.03h-3.61v-23.03Z"/>
    <path d="m225.55,432.79h3.7c.49,4.01,3.16,5.12,6.59,5.12,3.79,0,5.35-1.65,5.35-3.79,0-2.58-1.78-3.25-6.01-4.14-4.54-.94-8.6-1.87-8.6-6.9,0-3.83,2.94-6.33,8.29-6.33,5.7,0,8.51,2.72,9.04,7.22h-3.7c-.36-3.03-2-4.37-5.44-4.37s-4.63,1.47-4.63,3.3c0,2.49,2.23,2.98,6.19,3.79,4.63.94,8.51,1.96,8.51,7.26,0,4.63-3.79,6.99-9.09,6.99-6.33,0-9.85-2.98-10.2-8.15Z"/>
    <path d="m246.4,417.24h3.34v-7.26h3.61v7.26h4.46v2.94h-4.46v14.97c0,1.6.85,2.14,2.32,2.14.71,0,1.51-.18,1.92-.31h.13v3.12c-.85.18-1.83.31-2.9.31-2.94,0-5.08-1.2-5.08-4.46v-15.77h-3.34v-2.94Z"/>
    <path class="cls-5" d="m267.17,417.24h3.16v-3.7c0-3.96,2.27-5.39,6.1-5.39.76,0,1.34.04,1.83.09v3.07c-.62-.04-.8-.04-1.16-.04-2.32,0-3.16.58-3.16,2.45v3.52h4.28v2.94h-4.28v20.09h-3.61v-20.09h-3.16v-2.94Z"/>
    <path class="cls-5" d="m285.34,421.08h.09c1.38-2.23,3.79-4.1,6.86-4.1.67,0,1.02.09,1.47.27v3.47h-.13c-.53-.18-.89-.22-1.6-.22-3.56,0-6.68,2.67-6.68,6.99v12.79h-3.61v-23.03h3.61v3.83Z"/>
    <path class="cls-5" d="m294.83,428.78c0-6.68,4.28-12.12,11.14-12.12s11.09,5.44,11.09,12.12-4.19,12.12-11.09,12.12-11.14-5.44-11.14-12.12Zm18.53,0c0-5.08-2.49-9.13-7.39-9.13s-7.44,4.05-7.44,9.13,2.54,9.09,7.44,9.09,7.39-4.01,7.39-9.09Z"/>
    <path class="cls-5" d="m320.67,417.24h3.61v3.3h.09c1.43-2.23,3.88-3.83,6.77-3.83s5.03,1.43,6.01,4.1h.09c1.47-2.63,4.23-4.1,7.04-4.1,4.1,0,6.99,2.63,6.99,7.39v16.17h-3.61v-15.99c0-2.85-1.92-4.54-4.23-4.54-2.99,0-5.66,2.58-5.66,6.19v14.34h-3.61v-15.99c0-2.85-1.6-4.54-3.96-4.54-2.81,0-5.92,2.58-5.92,6.19v14.34h-3.61v-23.03Z"/>
    <path class="cls-5" d="m369.19,428.16c3.83-3.03,8.02-5.17,8.02-9.09,0-2.85-1.51-4.77-4.23-4.77-3.07,0-4.9,2.23-4.99,6.19h-5.7c0-6.95,3.56-11.36,10.83-11.36,6.64,0,10.38,4.5,10.38,9.76,0,5.75-3.92,8.47-7.66,10.96-2.36,1.51-5.12,3.47-6.15,5.44h14.08v4.99h-21.92c.22-5.84,3.88-9.4,7.35-12.12Z"/>
    <path class="cls-5" d="m393.78,428.16c3.83-3.03,8.02-5.17,8.02-9.09,0-2.85-1.51-4.77-4.23-4.77-3.07,0-4.9,2.23-4.99,6.19h-5.7c0-6.95,3.56-11.36,10.83-11.36,6.64,0,10.38,4.5,10.38,9.76,0,5.75-3.92,8.47-7.66,10.96-2.36,1.51-5.12,3.47-6.15,5.44h14.08v4.99h-21.92c.22-5.84,3.88-9.4,7.35-12.12Z"/>
    <path class="cls-5" d="m410.97,425.04c0-9.76,5.03-15.95,12.79-15.95s12.7,6.15,12.7,15.95-4.81,15.95-12.74,15.95-12.74-6.24-12.74-15.95Zm19.16,0c0-6.46-1.87-10.78-6.37-10.78s-6.46,4.28-6.46,10.78,1.92,10.78,6.46,10.78,6.37-4.23,6.37-10.78Z"/>
    <path class="cls-5" d="m439.13,425.04c0-9.76,5.03-15.95,12.79-15.95s12.7,6.15,12.7,15.95-4.81,15.95-12.74,15.95-12.74-6.24-12.74-15.95Zm19.16,0c0-6.46-1.87-10.78-6.37-10.78s-6.46,4.28-6.46,10.78,1.92,10.78,6.46,10.78,6.37-4.23,6.37-10.78Z"/>
    <path class="cls-5" d="m467.91,435.87h4.32v4.41h-4.32v-4.41Z"/>
  </g>
  <g>
    <path d="m211.42,10.87v74.69h-74.94V10.87h-38.66v190.71h38.66v-84.02h74.94v84.02h38.66V10.87h-38.66Z"/>
    <path d="m371.98,10.87h-40l-66.4,190.71h39.18l12.54-40.55h68.8l12.8,40.55h40.29L371.98,10.87Zm-45.62,120.56l17.1-54.93c3.18-10.14,7.99-29.34,7.99-29.34h.52s4.54,19.21,7.73,29.34l17.09,54.93h-50.43Z"/>
    <path d="m570.68,10.87v100.04c0,13.32,1.07,33.07,1.07,33.07h-.56s-7.18-16.28-13.32-26.67l-63.48-106.44h-39.21v190.71h38.14v-98.41c0-13.35-1.04-33.36-1.04-33.36h.51s7.47,16.28,13.61,26.42l65.08,105.36h37.33V10.87h-38.14Z"/>
    <path d="m712.54,10.87h-74.4v190.71h71.22c24,0,42.4-6.7,56.52-18.43,20.01-16.79,30.41-43.98,30.41-74.94,0-56.27-32.82-97.34-83.76-97.34Zm-5.85,157.38h-29.89V43.95h30.96c32.79,0,49.31,26.4,49.31,64.26s-14.13,60.04-50.38,60.04Z"/>
    <path d="m811.76,119.96v31.19h72.29v-31.19h-72.29Z"/>
    <path d="m1354.5,10.87h-40l-66.44,190.71h39.22l12.54-40.55h68.8l12.8,40.55h40.29l-67.22-190.71Zm-45.62,120.56l17.06-54.93c3.21-10.14,8.02-29.34,8.02-29.34h.52s4.54,19.21,7.73,29.34l17.09,54.93h-50.43Z"/>
    <path d="m1613.2,10.87l-24.01,94.41c-3.74,16.54-9.32,41.87-9.32,41.87h-.56s-4.78-24-8.79-40.8l-20.8-95.48h-37.33l-20.82,95.74c-4,16.8-8.77,40.54-8.77,40.54h-.55s-4.52-25.33-8.26-41.61l-24.82-94.67h-39.47l55.49,190.71h35.74l23.46-102.14c3.21-13.87,6.14-33.89,6.14-33.89h.55s3.45,20.01,6.66,33.89l23.19,102.14h36l54.41-190.71h-38.14Z"/>
    <path d="m1782.81,10.87v100.04c0,13.32,1.08,33.07,1.08,33.07h-.56s-7.18-16.28-13.32-26.67l-63.48-106.44h-39.22v190.71h38.15v-98.41c0-13.35-1.07-33.36-1.07-33.36h.55s7.47,16.28,13.61,26.42l65.08,105.36h37.33V10.87h-38.15Z"/>
    <path d="m1351.28,326.27v20.79h57.34v4.51c0,32-18.39,58.68-57.61,58.68s-65.88-31.19-65.88-77.87,20.82-79.2,66.69-79.2c30.11,0,47.98,15.2,53.34,40.54h24.79c-6.14-37.33-33.33-61.34-77.62-61.34-60,0-91.74,43.99-91.74,100s36,98.69,89.6,98.69c25.08,0,45.61-9.61,59.48-29.07h.56l6.92,25.07h15.47v-100.8h-81.35Z"/>
    <path d="m1466.23,236.37v190.7h24v-190.7h-24Z"/>
    <path d="m1653.19,236.37v157.07h-.52s-7.47-14.65-13.87-24.53l-86.93-132.55h-25.34v190.7h22.39v-156.55h.56s7.99,14.39,14.13,23.71l87.46,132.84h24.56v-190.7h-22.42Z"/>
    <path d="m1779.89,315.57c-28.56-5.58-49.87-11.98-49.87-33.59,0-19.75,17.05-30.67,42.91-30.67,28.01,0,45.62,13.58,49.09,40.8h22.64c-4.77-35.21-24.53-59.48-72.25-59.48-38.69,0-64.82,18.94-64.82,50.42,0,36,28.79,45.59,62.41,53.06,34.14,7.47,57.08,13.61,57.08,39.73,0,23.74-18.94,35.73-45.36,35.73-36,0-55.75-16.8-58.93-49.06h-23.49c2.14,38.4,27.74,68.29,81.34,68.29,41.07,0,70.15-20.01,70.15-55.75,0-42.94-33.86-52.01-70.92-59.48Z"/>
    <g>
      <path class="cls-5" d="m1164.13,135.17l-7.79,19.28c16.49,13.63,35.12,30.84,55.9,51.61l16.56,16.56c13.11,12.99,21.59,21.07,25.42,24.25,3.83,3.18,7.11,4.77,9.84,4.77,4.93,0,12.07-3.57,21.42-10.71l4.87,5.65c-15.06,12.6-28.63,23.24-40.71,31.94l-6.82-7.01c-42.98-43.89-75.57-75.7-97.77-95.43-15.19,26.62-34.41,48.11-57.65,64.47-35.45,25.19-69.99,37.78-103.62,37.78-29.74,0-53.92-8.86-72.55-26.59-18.63-17.72-27.95-40.67-27.95-68.85,0-25.32,7.33-49.5,22.01-72.55,14.67-23.05,35.51-43.07,62.52-60.08,25.06-15.71,55.6-28.01,91.64-36.91,36.03-8.89,73.39-13.34,112.09-13.34s68.17,4.77,88.81,14.31c20.65,9.54,30.97,23.21,30.97,41,0,23.63-15.65,41.48-46.94,53.56-15.19,5.97-24.74,14.74-28.63,26.29-8.96-.52-18.57-.78-28.83-.78-8.05,0-15.65.26-22.79.78Zm-29.8-74.4c21.55-4.41,40.71-9.35,57.46-14.8l-.97,3.51c-5.84,24.28-11.88,45.38-18.11,63.3,7.4.39,12.66.58,15.78.58,23.5,0,41.97-4.87,55.41-14.61,13.44-9.74,20.16-23.18,20.16-40.32,0-32.07-36.36-48.11-109.07-48.11-81.15,0-144.13,18.18-188.92,54.53-38.69,31.55-58.04,68.17-58.04,109.85,0,26.23,8.63,47.56,25.9,63.98,17.27,16.43,39.73,24.64,67.39,24.64,14.67,0,29.9-2.99,45.67-8.96,15.78-5.97,29.31-13.89,40.61-23.76,15.97-13.89,30.9-35.97,44.8-66.22-21.94-19.73-42.59-29.6-61.93-29.6-17.27,0-31.49,5.58-42.65,16.75-11.17,11.17-16.75,25.45-16.75,42.85,0,4.29.65,9.54,1.95,15.78-10-5.45-15-13.18-15-23.18,0-14.54,10.35-30.02,31.07-46.45,20.71-16.42,40.15-24.64,58.33-24.64,13.63,0,26.88,4.81,39.73,14.41l12.27,9.35c.78.52,1.75,1.17,2.92,1.95,4.54-10.26,8.83-22.27,12.85-36.03,4.02-13.76,6.04-23.24,6.04-28.44,0-7.4-4.35-11.1-13.05-11.1-2.73,0-6.75.52-12.07,1.56l-1.75-6.82Z"/>
      <path d="m1012.44,16.33c-4.03-1.55-8.29-2.82-12.71-3.69-5.55-1.18-11.43-1.76-17.54-1.76h-74.4v190.71h71.17c1.92,0,3.81-.03,5.66-.14,2.93-.13,5.75-.36,8.51-.71,17.28-2.14,31.19-8.28,42.4-17.58,15.27-12.82,24.98-31.77,28.65-53.83,1.14-6.5,1.72-13.25,1.72-20.24.03-.28.03-.58.03-.87,0-44.15-20.2-78.95-53.5-91.88Zm10.53,120.63c-4.23,13.58-12.28,23.1-25.02,27.81-4.51,1.72-9.61,2.8-15.36,3.25-2.01.16-4.09.23-6.27.23h-29.86V43.95h30.93c32.81,0,49.35,26.4,49.35,64.26,0,5.97-.36,11.57-1.1,16.73-.59,4.32-1.47,8.32-2.67,12.02Z"/>
      <path d="m992.03,279.21c-2.42-4.67-5.25-9.09-8.43-13.18-16.09-21.07-41.16-33.91-72.88-33.91-2.54,0-5.04.1-7.48.29-10.88.68-20.88,2.95-29.91,6.63-35.27,14.19-55.97,49.13-55.97,92.55,0,57.04,35.73,99.48,93.37,99.48s93.33-42.44,93.33-99.48c0-19.56-4.19-37.4-12.02-52.38Z"/>
      <path d="m1172.35,385.19c-1.89-28.26-8-41.61-27.49-48.54v-.81c22.93-7.47,33.07-24.01,33.07-47.21,0-31.19-22.65-52.27-56.27-52.27h-89.08v190.7h24.01v-80.57h53.08c25.6,0,36.8,9.88,38.66,37.89,2.14,32,2.92,39.21,6.95,42.68h25.86v-1.07c-3.47-2.4-6.65-10.14-8.79-40.8Zm-59.2-58.15h-56.56v-69.88h57.89c27.98,0,38.66,11.76,38.66,34.96,0,21.61-13.35,34.93-40,34.93Z"/>
      <path d="m1207.56,236.37v190.7h23.98v-190.7h-23.98Z"/>
      <g class="cls-2">
        <path class="cls-5" d="m1164.13,135.17l-7.79,19.28c16.49,13.63,35.12,30.84,55.9,51.61l16.56,16.56c13.11,12.99,21.59,21.07,25.42,24.25,3.83,3.18,7.11,4.77,9.84,4.77,4.93,0,12.07-3.57,21.42-10.71l4.87,5.65c-15.06,12.6-28.63,23.24-40.71,31.94l-6.82-7.01c-42.98-43.89-75.57-75.7-97.77-95.43-15.19,26.62-34.41,48.11-57.65,64.47-35.45,25.19-69.99,37.78-103.62,37.78-29.74,0-53.92-8.86-72.55-26.59-18.63-17.72-27.95-40.67-27.95-68.85,0-25.32,7.33-49.5,22.01-72.55,14.67-23.05,35.51-43.07,62.52-60.08,25.06-15.71,55.6-28.01,91.64-36.91,36.03-8.89,73.39-13.34,112.09-13.34s68.17,4.77,88.81,14.31c20.65,9.54,30.97,23.21,30.97,41,0,23.63-15.65,41.48-46.94,53.56-15.19,5.97-24.74,14.74-28.63,26.29-8.96-.52-18.57-.78-28.83-.78-8.05,0-15.65.26-22.79.78Zm-29.8-74.4c21.55-4.41,40.71-9.35,57.46-14.8l-.97,3.51c-5.84,24.28-11.88,45.38-18.11,63.3,7.4.39,12.66.58,15.78.58,23.5,0,41.97-4.87,55.41-14.61,13.44-9.74,20.16-23.18,20.16-40.32,0-32.07-36.36-48.11-109.07-48.11-81.15,0-144.13,18.18-188.92,54.53-38.69,31.55-58.04,68.17-58.04,109.85,0,26.23,8.63,47.56,25.9,63.98,17.27,16.43,39.73,24.64,67.39,24.64,14.67,0,29.9-2.99,45.67-8.96,15.78-5.97,29.31-13.89,40.61-23.76,15.97-13.89,30.9-35.97,44.8-66.22-21.94-19.73-42.59-29.6-61.93-29.6-17.27,0-31.49,5.58-42.65,16.75-11.17,11.17-16.75,25.45-16.75,42.85,0,4.29.65,9.54,1.95,15.78-10-5.45-15-13.18-15-23.18,0-14.54,10.35-30.02,31.07-46.45,20.71-16.42,40.15-24.64,58.33-24.64,13.63,0,26.88,4.81,39.73,14.41l12.27,9.35c.78.52,1.75,1.17,2.92,1.95,4.54-10.26,8.83-22.27,12.85-36.03,4.02-13.76,6.04-23.24,6.04-28.44,0-7.4-4.35-11.1-13.05-11.1-2.73,0-6.75.52-12.07,1.56l-1.75-6.82Z"/>
      </g>
    </g>
    <g>
      <path class="cls-1" d="m870.49,355.95h8.44v-18.34h9.11v18.34h11.25v7.42h-11.25v37.8c0,4.05,2.14,5.4,5.85,5.4,1.8,0,3.82-.45,4.84-.79h.34v7.87c-2.14.45-4.61.79-7.31.79-7.42,0-12.82-3.04-12.82-11.25v-39.82h-8.44v-7.42Z"/>
      <path class="cls-1" d="m902.1,385.08c0-16.87,10.8-30.6,28.12-30.6s28.01,13.72,28.01,30.6-10.57,30.6-28.01,30.6-28.12-13.72-28.12-30.6Zm46.8,0c0-12.82-6.3-23.06-18.67-23.06s-18.79,10.24-18.79,23.06,6.41,22.95,18.79,22.95,18.67-10.12,18.67-22.95Z"/>
    </g>
  </g>
  <polygon points="852.52 451.68 850.02 451.68 837.3 451.68 852.74 436.24 847.57 431.07 832.13 446.51 832.13 431.29 824.81 431.29 824.81 459 852.52 459 852.52 451.68"/>
</svg>