<?xml version="1.0" encoding="UTF-8"?>
<svg id="Layer_1" data-name="Layer 1" xmlns="http://www.w3.org/2000/svg" viewBox="0 0 1059.3 1049.69">
  <defs>
    <style>
      .cls-1 {
        opacity: .6;
      }

      .cls-1, .cls-2, .cls-3, .cls-4, .cls-5, .cls-6 {
        fill: #adaef3;
      }

      .cls-7, .cls-8 {
        font-family: NHaasGroteskDSPro-55Rg, 'Neue Haas Grotesk Display Pro';
      }

      .cls-9, .cls-10 {
        font-family: NHaasGroteskDSPro-65Md, 'Neue Haas Grotesk Display Pro';
        font-weight: 500;
      }

      .cls-11 {
        letter-spacing: 0em;
      }

      .cls-2 {
        font-size: 53.82px;
      }

      .cls-3 {
        opacity: .8;
      }

      .cls-5 {
        opacity: .4;
      }

      .cls-8 {
        letter-spacing: -.02em;
      }

      .cls-10 {
        letter-spacing: 0em;
      }

      .cls-6 {
        opacity: .2;
      }
    </style>
  </defs>
  <g>
    <g>
      <path d="m69.21,180.94v45.11H23.95v-45.11H.6v115.18h23.35v-50.74h45.26v50.74h23.35v-115.18h-23.35Z"/>
      <path d="m166.18,180.94h-24.15l-40.1,115.18h23.66l7.57-24.49h41.55l7.73,24.49h24.33l-40.6-115.18Zm-27.55,72.81l10.32-33.17c1.92-6.12,4.82-17.72,4.82-17.72h.32s2.74,11.6,4.67,17.72l10.32,33.17h-30.45Z"/>
      <path d="m286.18,180.94v60.41c0,8.04.65,19.97.65,19.97h-.34s-4.34-9.83-8.04-16.11l-38.34-64.28h-23.68v115.18h23.03v-59.43c0-8.06-.63-20.15-.63-20.15h.31s4.51,9.83,8.22,15.95l39.3,63.63h22.54v-115.18h-23.03Z"/>
      <path d="m371.86,180.94h-44.93v115.18h43.01c14.5,0,25.61-4.04,34.14-11.13,12.09-10.14,18.37-26.56,18.37-45.26,0-33.98-19.82-58.79-50.58-58.79Zm-3.53,95.05h-18.05v-75.07h18.7c19.8,0,29.78,15.95,29.78,38.81s-8.53,36.26-30.43,36.26Z"/>
      <path d="m431.78,246.82v18.84h43.66v-18.84h-43.66Z"/>
      <path d="m552.97,184.23c-2.43-.94-5.01-1.7-7.68-2.23-3.35-.71-6.9-1.06-10.59-1.06h-44.93v115.18h42.99c1.16,0,2.3-.02,3.42-.08,1.77-.08,3.47-.22,5.14-.43,10.44-1.29,18.84-5,25.61-10.62,9.22-7.75,15.08-19.19,17.3-32.51.69-3.92,1.04-8.01,1.04-12.23.02-.17.02-.35.02-.53,0-26.66-12.2-47.68-32.31-55.49Zm6.36,72.85c-2.55,8.2-7.42,13.95-15.11,16.8-2.73,1.04-5.81,1.69-9.28,1.96-1.22.1-2.47.14-3.78.14h-18.03v-75.07h18.68c19.81,0,29.8,15.95,29.8,38.81,0,3.61-.22,6.98-.67,10.1-.35,2.61-.89,5.03-1.61,7.26Z"/>
      <path d="m759.56,180.94h-24.15l-40.13,115.18h23.69l7.57-24.49h41.55l7.73,24.49h24.33l-40.6-115.18Zm-27.55,72.81l10.31-33.17c1.94-6.12,4.84-17.72,4.84-17.72h.32s2.74,11.6,4.67,17.72l10.32,33.17h-30.45Z"/>
      <path d="m915.79,180.94l-14.5,57.02c-2.26,9.99-5.63,25.29-5.63,25.29h-.34s-2.88-14.5-5.31-24.64l-12.56-57.66h-22.54l-12.57,57.82c-2.41,10.15-5.3,24.48-5.3,24.48h-.33s-2.73-15.3-4.99-25.13l-14.99-57.18h-23.84l33.51,115.18h21.59l14.17-61.69c1.94-8.38,3.71-20.47,3.71-20.47h.33s2.09,12.09,4.02,20.47l14.01,61.69h21.74l32.86-115.18h-23.03Z"/>
      <path d="m1018.23,180.94v60.41c0,8.04.65,19.97.65,19.97h-.34s-4.34-9.83-8.04-16.11l-38.34-64.28h-23.69v115.18h23.04v-59.43c0-8.06-.65-20.15-.65-20.15h.33s4.51,9.83,8.22,15.95l39.3,63.63h22.54v-115.18h-23.04Z"/>
    </g>
    <g>
      <path d="m540.65,343c-1.47-2.83-3.18-5.5-5.1-7.97-9.71-12.73-24.86-20.48-44.01-20.48-1.53,0-3.04.06-4.51.17-6.57.41-12.61,1.79-18.07,4.01-21.3,8.58-33.8,29.67-33.8,55.9,0,34.45,21.58,60.08,56.38,60.08s56.37-25.63,56.37-60.08c0-11.81-2.53-22.58-7.26-31.63Zm-49.11,78.97c-27.07,0-41.55-20.29-41.55-47.35,0-22.19,9.75-39.94,28.19-45.62,4.04-1.24,8.5-1.9,13.36-1.9,5.93,0,11.24.98,15.93,2.78.1.04.2.08.3.12,7.47,2.96,13.36,8.04,17.56,14.67,5.12,8.07,7.77,18.41,7.77,29.94,0,27.06-14.5,47.35-41.56,47.35Z"/>
      <path d="m649.55,407.01c-1.14-17.07-4.83-25.13-16.6-29.31v-.49c13.85-4.51,19.97-14.5,19.97-28.51,0-18.84-13.68-31.57-33.99-31.57h-53.8v115.17h14.5v-48.66h32.06c15.46,0,22.23,5.96,23.35,22.88,1.29,19.32,1.76,23.68,4.2,25.78h15.62v-.65c-2.1-1.45-4.02-6.12-5.31-24.64Zm-35.75-35.12h-34.16v-42.21h34.96c16.9,0,23.35,7.11,23.35,21.11,0,13.05-8.06,21.09-24.15,21.09Z"/>
      <path d="m670.81,317.13v115.17h14.48v-115.17h-14.48Z"/>
      <path d="m757.61,371.42v12.56h34.63v2.73c0,19.32-11.1,35.44-34.79,35.44s-39.78-18.84-39.78-47.03,12.57-47.83,40.28-47.83c18.18,0,28.98,9.18,32.22,24.48h14.97c-3.71-22.54-20.13-37.05-46.88-37.05-36.23,0-55.41,26.57-55.41,60.4s21.74,59.6,54.11,59.6c15.15,0,27.55-5.81,35.92-17.56h.34l4.18,15.14h9.34v-60.88h-49.13Z"/>
      <path d="m827.03,317.13v115.17h14.5v-115.17h-14.5Z"/>
      <path d="m939.95,317.13v94.86h-.32s-4.51-8.85-8.38-14.81l-52.5-80.05h-15.31v115.17h13.52v-94.55h.34s4.82,8.69,8.53,14.32l52.82,80.23h14.83v-115.17h-13.54Z"/>
      <path d="m1016.47,364.96c-17.25-3.37-30.12-7.24-30.12-20.29,0-11.93,10.3-18.52,25.92-18.52,16.92,0,27.55,8.2,29.65,24.64h13.67c-2.88-21.26-14.81-35.92-43.63-35.92-23.37,0-39.14,11.44-39.14,30.45,0,21.74,17.39,27.53,37.69,32.05,20.62,4.51,34.47,8.22,34.47,24,0,14.34-11.44,21.58-27.39,21.58-21.74,0-33.67-10.15-35.59-29.63h-14.18c1.29,23.19,16.75,41.24,49.13,41.24,24.8,0,42.36-12.09,42.36-33.67,0-25.94-20.45-31.41-42.83-35.92Z"/>
    </g>
    <path class="cls-4" d="m1006.03,983.24v16.06h45.11v-16.06h-45.11Z"/>
    <path class="cls-4" d="m544.22,273.88c-2.73,1.04-5.81,1.69-9.28,1.96-1.61,3.39-2.41,6.71-2.41,9.94,0,3.97,1.22,7.38,3.65,10.24,1.77-.08,3.47-.22,5.14-.43-.25-1.86-.37-3.53-.37-5.02,0-6.18,1.08-11.76,3.28-16.7Zm159.89,53.63c-1.74,0-3.86-1.02-6.33-3.08-2.47-2.06-7.95-7.26-16.4-15.64l-10.67-10.67c-13.41-13.4-25.41-24.5-36.04-33.29l5.02-12.44c4.61-.34,9.5-.49,14.7-.49,6.61,0,12.81.16,18.58.49,2.53-7.46,8.67-13.11,18.48-16.95,20.17-7.79,30.27-19.31,30.27-34.55,0-11.46-6.67-20.29-19.97-26.43-13.32-6.16-32.41-9.24-57.29-9.24s-49.05,2.86-72.29,8.61c-9.55,2.35-18.52,5.08-26.86,8.18-11.99,4.45-22.73,9.65-32.25,15.62-8.77,5.51-16.52,11.54-23.27,18.05-6.67,6.41-12.36,13.32-17.05,20.69-2.2,3.45-4.14,6.93-5.81,10.46-2.94,6.16-5.11,12.44-6.49,18.84-1.25,5.73-1.88,11.58-1.88,17.51,0,13.81,3.47,25.66,10.41,35.57,2.18,3.14,4.73,6.08,7.62,8.83.53.51,1.06,1,1.6,1.45,4.04-1.24,8.5-1.9,13.36-1.9,5.93,0,11.24.98,15.93,2.78-6.04-2.59-11.48-6.18-16.28-10.75-1.5-1.41-2.86-2.88-4.16-4.42-8.35-9.91-12.54-22.19-12.54-36.84,0-4.16.3-8.22.91-12.23,0-.08.02-.18.04-.25,1.88-12.44,6.67-24.12,14.34-35.04,5.75-8.2,13.15-15.97,22.15-23.32.39-.32.8-.65,1.2-.94v-5.18h7.02c9.77-6.73,20.72-12.28,32.83-16.68,22.8-8.24,49.74-12.38,80.8-12.38,46.89,0,70.33,10.36,70.33,31.04,0,11.05-4.34,19.72-12.99,26-8.67,6.28-20.58,9.42-35.75,9.42-2,0-5.39-.12-10.17-.37,4.01-11.55,7.91-25.17,11.67-40.83l.63-2.26c-10.81,3.51-23.15,6.71-37.06,9.56l1.13,4.39c3.44-.67,6.03-1,7.79-1,5.62,0,8.42,2.38,8.42,7.14,0,3.35-1.29,9.48-3.9,18.34-2.59,8.89-5.36,16.62-8.28,23.25-.77-.51-1.39-.93-1.88-1.25l-7.93-6.05c-8.28-6.2-16.82-9.3-25.63-9.3-1.63,0-3.26.1-4.91.31-7.75.94-15.85,4.13-24.33,9.58-.35,2.61-.89,5.03-1.61,7.26,5.73-3.3,12.38-4.94,19.91-4.94,1.65,0,3.3.12,4.98.34,11.03,1.45,22.68,7.69,34.97,18.75-8.95,19.5-18.58,33.75-28.88,42.69-1.27,1.12-2.59,2.18-3.94,3.2-6.16,4.73-13.25,8.61-21.23,11.71-.33.16-.68.28-1.02.41-9.87,3.75-19.38,5.67-28.57,5.79h-.88c-10.03,0-19-1.67-26.9-5.02,7.47,2.96,13.36,8.04,17.56,14.67,5.08-.11,10.19-.68,15.33-1.69,8.08-1.57,16.24-4.23,24.48-8.01,8.26-3.78,16.6-8.67,25.04-14.65,1.47-1.04,2.92-2.1,4.34-3.22,13.07-10.08,24.02-22.87,32.84-38.36,10.74,9.54,25.21,23.43,43.46,41.69,4.6,4.6,9.42,9.48,14.48,14.64,1.69,1.7,3.39,3.45,5.12,5.22l4.39,4.51c7.79-5.61,16.54-12.48,26.27-20.6l-3.16-3.63c-6.03,4.59-10.64,6.91-13.82,6.91Zm-169.16-51.66c-1.61,3.39-2.41,6.71-2.41,9.94,0,3.97,1.22,7.38,3.65,10.24,1.77-.08,3.47-.22,5.14-.43-.25-1.86-.37-3.53-.37-5.02,0-6.18,1.08-11.76,3.28-16.7-2.73,1.04-5.81,1.69-9.28,1.96Zm9.28-1.96c-2.73,1.04-5.81,1.69-9.28,1.96-1.61,3.39-2.41,6.71-2.41,9.94,0,3.97,1.22,7.38,3.65,10.24,1.77-.08,3.47-.22,5.14-.43-.25-1.86-.37-3.53-.37-5.02,0-6.18,1.08-11.76,3.28-16.7Z"/>
    <g>
      <path class="cls-4" d="m597.08,1035.36c5.27-3.13,10.38-5.63,10.38-12.77,0-5.89-4.22-10.38-10.95-10.38-3.39,0-6.52,1.1-8.66,3.23-2.03,2.04-3.18,4.96-3.18,8.97h3.44c.05-3.28.84-5.48,2.24-7.04,1.41-1.52,3.44-2.3,5.95-2.3,4.69,0,7.71,2.82,7.71,7.61,0,5.22-3.34,6.99-8.18,9.91-5.63,3.39-11.84,6.88-11.99,16.06h23.15v-3.13h-19.29c.73-4.96,5.27-7.72,9.39-10.17Z"/>
      <path class="cls-4" d="m624.51,1012.16c-8.08,0-13.24,7.04-13.24,18.62s4.74,18.62,13.19,18.62,13.24-7.25,13.24-18.62-5.11-18.62-13.19-18.62Zm0,34.31c-6.36,0-9.75-6.1-9.75-15.7s3.39-15.75,9.75-15.75,9.7,6.15,9.7,15.75-3.23,15.7-9.7,15.7Z"/>
      <path class="cls-4" d="m654.34,1035.36c5.27-3.13,10.38-5.63,10.38-12.77,0-5.89-4.22-10.38-10.95-10.38-3.39,0-6.52,1.1-8.66,3.23-2.03,2.04-3.18,4.96-3.18,8.97h3.44c.06-3.28.84-5.48,2.24-7.04,1.41-1.52,3.44-2.3,5.95-2.3,4.69,0,7.71,2.82,7.71,7.61,0,5.22-3.34,6.99-8.18,9.91-5.63,3.39-11.84,6.88-11.99,16.06h23.15v-3.13h-19.29c.73-4.96,5.27-7.72,9.39-10.17Z"/>
      <path class="cls-4" d="m685.73,1029.63v-.16c3.18-1.25,5.37-3.71,5.37-7.77,0-5.95-4.64-9.54-10.64-9.54-7.25,0-11.47,4.75-11.52,11.32h3.34c0-4.85,2.92-8.55,8.08-8.55,4.23,0,7.41,2.45,7.41,6.78,0,4.01-2.76,6.62-7.67,6.62h-2.45v2.76h2.5c5.58,0,8.81,2.76,8.81,7.51s-3.18,7.82-8.55,7.82-9.02-3.08-9.23-8.81h-3.38c.05,7.35,5.52,11.79,12.67,11.79s11.94-4.01,11.94-10.53c0-4.59-2.14-7.77-6.67-9.23Z"/>
      <path class="cls-4" d="m721.91,1033.59c-.36,3.39-2.6,5.95-6.52,5.95-4.74,0-7.51-3.97-7.51-9.39s2.56-9.54,7.61-9.54c3.39,0,5.53,1.87,6.05,4.69h3.18c-.73-4.33-4.01-7.4-9.23-7.4-6.78,0-10.84,5.22-10.84,12.25s4.33,12.05,10.74,12.05c3.13,0,5.48-1.05,7.1-2.71,1.51-1.52,2.39-3.7,2.5-5.89h-3.08Zm0,0c-.36,3.39-2.6,5.95-6.52,5.95-4.74,0-7.51-3.97-7.51-9.39s2.56-9.54,7.61-9.54c3.39,0,5.53,1.87,6.05,4.69h3.18c-.73-4.33-4.01-7.4-9.23-7.4-6.78,0-10.84,5.22-10.84,12.25s4.33,12.05,10.74,12.05c3.13,0,5.48-1.05,7.1-2.71,1.51-1.52,2.39-3.7,2.5-5.89h-3.08Zm-6.62-22.89c-10.69,0-19.03,8.29-19.03,19.45s8.35,19.4,19.03,19.4,19.03-8.24,19.03-19.4-8.34-19.45-19.03-19.45Zm0,37.02c-9.65,0-16.79-7.45-16.79-17.57s7.14-17.63,16.79-17.63,16.79,7.51,16.79,17.63-7.14,17.57-16.79,17.57Zm.1-8.18c-4.74,0-7.51-3.97-7.51-9.39s2.56-9.54,7.61-9.54c3.39,0,5.53,1.87,6.05,4.69h3.18c-.73-4.33-4.01-7.4-9.23-7.4-6.78,0-10.84,5.22-10.84,12.25s4.33,12.05,10.74,12.05c3.13,0,5.48-1.05,7.1-2.71,1.51-1.52,2.39-3.7,2.5-5.89h-3.08c-.36,3.39-2.6,5.95-6.52,5.95Z"/>
      <path class="cls-4" d="m766.13,1040.47c-.26-5.79-1.51-8.61-5.37-9.91v-.16c4.27-1.35,6.26-4.38,6.26-8.97,0-6.21-3.86-10.06-10.59-10.06h-16.63v37.28h3.49v-16.64h11.37c5.42,0,7.66,1.83,7.98,8.29.31,6.36.52,7.77,1.36,8.35h3.75v-.21c-.68-.47-1.36-1.98-1.62-7.98Zm-10.9-11.42h-11.94v-14.6h12.41c5.63,0,7.71,2.66,7.71,7.3s-2.76,7.3-8.18,7.3Z"/>
      <path class="cls-4" d="m796.43,1011.38v25.13c0,6.88-3.96,9.7-10.17,9.7-6.52,0-10.22-2.82-10.22-9.7v-25.13h-3.5v25.45c0,8.55,5.42,12.41,13.56,12.41s13.82-3.75,13.82-12.41v-25.45h-3.49Z"/>
      <path class="cls-4" d="m819.22,1027.44c-6.67-1.25-10.11-2.61-10.11-7.04,0-4.12,3.44-6.83,9.13-6.83,5.31,0,9.07,2.71,9.7,7.98h3.39c-.68-6.41-4.85-10.9-13.14-10.9-7.46,0-12.46,3.91-12.46,9.85,0,6.52,4.85,8.6,11.73,9.96,7.98,1.61,11.47,2.87,11.47,8.13s-4.07,7.82-9.54,7.82c-6.99,0-11.27-3.55-11.63-9.85h-3.49c.42,7.25,5.27,12.78,15.07,12.78,7.82,0,13.14-4.28,13.14-10.9,0-7.82-6-9.59-13.24-11Z"/>
      <path class="cls-4" d="m862.24,1011.38v16.11h-21.12v-16.11h-3.49v37.28h3.49v-18.25h21.12v18.25h3.49v-37.28h-3.49Z"/>
      <path class="cls-4" d="m887.52,1011.38h-3.96l-14.08,37.28h3.55l4.38-11.73h16.22l4.33,11.73h3.75l-14.19-37.28Zm-9.07,22.68l5.21-13.92c.83-2.24,1.83-5.42,1.83-5.42h.1s1.09,3.34,1.87,5.42l5.11,13.92h-14.13Z"/>
      <path class="cls-4" d="m925.9,1029v-.16c3.76-1.3,5.68-3.86,5.68-8.08,0-2.82-.99-5.11-2.71-6.67-1.87-1.78-4.59-2.71-7.92-2.71h-15.49v37.28h16.16c3.86,0,6.88-1.2,8.81-3.18,1.77-1.83,2.71-4.28,2.71-7.3,0-4.95-2.97-7.98-7.25-9.18Zm-16.94-14.54h12.05c4.33,0,7.04,2.35,7.04,6.57s-2.61,6.73-7.14,6.73h-11.94v-13.3Zm18.77,28.89c-1.35,1.3-3.44,2.14-6.31,2.14h-12.46v-14.71h12.46c4.9,0,8.19,2.71,8.19,7.45,0,2.19-.68,3.92-1.88,5.11Z"/>
      <path class="cls-4" d="m941.44,1045.43v-14.55h20.02v-3.02h-20.02v-13.4h21.85v-3.08h-25.34v37.28h25.91v-3.23h-22.42Z"/>
      <path class="cls-4" d="m972.62,1045.43v-34.05h-3.49v37.28h23.36v-3.23h-19.87Z"/>
      <path class="cls-4" d="m1000.57,1045.43v-34.05h-3.49v37.28h23.36v-3.23h-19.87Z"/>
      <path class="cls-4" d="m1028.52,1045.43v-14.55h20.02v-3.02h-20.02v-13.4h21.85v-3.08h-25.34v37.28h25.91v-3.23h-22.42Z"/>
    </g>
    <g>
      <rect class="cls-4" x="7.39" y="1003.19" width="37" height="37" transform="translate(-995.8 1047.57) rotate(-90)"/>
      <rect class="cls-3" x="7.39" y="966.19" width="37" height="37" transform="translate(-958.81 1010.57) rotate(-90)"/>
      <rect class="cls-1" x="7.39" y="929.19" width="37" height="37" transform="translate(-921.81 973.58) rotate(-90)"/>
      <rect class="cls-5" x="7.39" y="892.2" width="37" height="37" transform="translate(-884.81 936.58) rotate(-90)"/>
      <rect class="cls-6" x="7.39" y="855.2" width="37" height="37" transform="translate(-847.81 899.58) rotate(-90)"/>
      <rect class="cls-4" x="7.39" y="818.2" width="37" height="37" transform="translate(-810.82 862.58) rotate(-90)"/>
      <rect class="cls-3" x="7.39" y="781.21" width="37" height="37" transform="translate(-773.82 825.59) rotate(-90)"/>
      <rect class="cls-1" x="7.39" y="744.21" width="37" height="37" transform="translate(-736.82 788.59) rotate(-90)"/>
      <rect class="cls-5" x="7.39" y="707.21" width="37" height="37" transform="translate(-699.83 751.59) rotate(-90)"/>
      <rect class="cls-6" x="7.39" y="670.21" width="37" height="37" transform="translate(-662.83 714.6) rotate(-90)"/>
    </g>
    <g>
      <path d="m136.76,422.04c-40.95,0-71.37,25.63-71.37,66.96s30.42,66.97,71.37,66.97c11.24,0,21.69-1.94,30.94-5.62,3.71-1.43,7.2-3.18,10.49-5.2,18.41-11.2,29.94-30.69,29.94-56.15,0-41.33-30.42-66.96-71.37-66.96Zm35.21,107.28c-2.27,1.44-4.69,2.7-7.25,3.79-8.14,3.48-17.63,5.27-27.96,5.27-32.15,0-56.46-17.22-56.46-49.38s24.31-49.36,56.46-49.36,56.25,17.22,56.25,49.36c0,18.57-8.04,32.16-21.04,40.32Z"/>
      <path d="m178.18,545.14c-1.41-5.31-3.5-10.58-6.22-15.82-5.19-9.91-12.72-19.74-22.59-29.44-13.26-13.09-25.02-19.7-35.27-19.78-3.56-.02-7.45.93-11.64,2.87,20.32,2.75,36.35,10.83,48.09,24.25,6.6,7.56,11.33,16.18,14.16,25.88,1.59,5.41,2.58,11.16,2.98,17.24.19,2.39.25,4.84.23,7.31-.13,16.03-3.67,28.35-10.62,36.99-6.93,8.64-16.69,12.91-29.31,12.8-17.47-.15-34.67-5.25-51.59-15.35-16.93-10.07-29.17-22.48-36.71-37.2.77-2.87,1.21-4.47,1.29-4.76l8.08-27.84c.85-2.9,2.94-10.87,6.23-23.98l2.7-10.69.93-3.41c-2.54-3.75-4.85-9.68-6.91-17.82-3.46-13.41-8.77-20.14-15.88-20.18-5.77-.06-10.45,3.23-14.04,9.85-3.6,6.62-5.43,15.34-5.51,26.21-.13,14.43,2.04,28.33,6.5,41.74l5.12,15.17c.07.32.38,1.27.87,2.85-7.62,24.26-11.49,42.56-11.59,54.92-.15,18.99,8.6,36.37,26.23,52.15,12.2,10.98,24.08,16.49,35.62,16.57,8.43.09,14.95-3.43,19.57-10.53-7.08,1.77-13.43,2.62-19.05,2.58-15.04-.13-27.19-5-36.5-14.59-9.31-9.6-13.89-22.04-13.76-37.31.08-10.61,2.89-25.52,8.45-44.7,7.65,12.91,15.68,23.26,24.11,31.06,9.95,9.12,21.07,16.28,33.33,21.46,12.25,5.19,24.34,7.83,36.27,7.94,13.51.1,24.25-3.97,32.21-12.29,4.98-5.04,8.97-11.78,11.95-20.24,2.99-8.43,4.54-17.09,4.6-25.98.06-6.04-.73-12.01-2.33-17.96Zm-147.11-10.68c-6.1-15.01-9.07-30.46-8.95-46.32.09-9.95,1.69-18.51,4.81-25.71,3.15-7.18,6.81-10.77,10.98-10.73,2.35.03,4.31,1.67,5.89,4.94,1.56,3.29,2.33,7.35,2.29,12.22-.04,5.23-1.64,14.76-4.79,28.61-3.14,13.82-6.56,26.15-10.22,36.99Z"/>
      <path d="m99.71,665.48l15,15.65c.9.94-.22,2.42-1.37,1.81l-19.12-10.2c-.64-.34-1.44,0-1.64.69l-6.05,20.81c-.36,1.25-2.2,1.02-2.25-.28l-.73-21.66c-.02-.73-.71-1.25-1.42-1.08l-21.05,5.17c-1.27.31-1.99-1.4-.88-2.09l18.4-11.46c.62-.39.73-1.24.22-1.77l-15-15.65c-.9-.94.22-2.42,1.37-1.81l19.12,10.2c.64.34,1.44,0,1.64-.69l6.05-20.81c.36-1.25,2.2-1.02,2.25.28l.73,21.66c.02.73.71,1.25,1.42,1.08l21.05-5.17c1.27-.31,1.99,1.4.88,2.09l-18.4,11.46c-.62.39-.73,1.24-.22,1.77Z"/>
    </g>
    <text class="cls-2" transform="translate(.79 350.93)"><tspan class="cls-7"><tspan x="0" y="0">; a visual arti</tspan><tspan class="cls-11" x="262.94" y="0">s</tspan><tspan x="288.12" y="0">t </tspan></tspan><tspan class="cls-7" x="0" y="45.17">f</tspan><tspan class="cls-8" x="15.82" y="45.17">r</tspan><tspan class="cls-7" x="33.2" y="45.17">om </tspan><tspan class="cls-10" x="114.14" y="45.17">2</tspan><tspan class="cls-9" x="143.85" y="45.17">200</tspan><tspan class="cls-7" x="241.31" y="45.17">.</tspan></text>
    <g>
      <path d="m238.42,623.31h-7c-2.15,0-3.9-.67-5.25-2.02-1.35-1.35-2.02-3.09-2.02-5.25v-144.79c0-2.15.67-3.9,2.02-5.25,1.35-1.35,3.09-2.02,5.25-2.02h7v159.32Zm0-159.32v-7.27c0-2.15.67-3.9,2.02-5.25s3.09-2.02,5.25-2.02h72.66c2.15,0,3.9.67,5.25,2.02,1.35,1.35,2.02,3.09,2.02,5.25v7.27h-87.19Zm0,159.32h87.19v7.27c0,2.15-.67,3.9-2.02,5.25-1.35,1.35-3.09,2.02-5.25,2.02h-72.66c-2.15,0-3.9-.67-5.25-2.02s-2.02-3.09-2.02-5.25v-7.27Zm87.19-159.32h7c2.15,0,3.9.67,5.25,2.02s2.02,3.09,2.02,5.25v7.27h-7c-2.15,0-3.9-.67-5.25-2.02s-2.02-3.09-2.02-5.25v-7.27Zm0,159.32v-7.27c0-2.15.67-3.9,2.02-5.25s3.09-2.02,5.25-2.02h7v7.27c0,2.15-.67,3.9-2.02,5.25s-3.09,2.02-5.25,2.02h-7Zm14.26-144.79h7.27c2.15,0,3.9.67,5.25,2.02s2.02,3.09,2.02,5.25v7.27h-7.27c-2.15,0-3.9-.67-5.25-2.02-1.35-1.35-2.02-3.09-2.02-5.25v-7.27Zm0,130.25v-7.27c0-2.15.67-3.9,2.02-5.25,1.35-1.35,3.09-2.02,5.25-2.02h7.27v7.27c0,2.15-.67,3.9-2.02,5.25s-3.09,2.02-5.25,2.02h-7.27Zm14.53-115.72h7.27c2.15,0,3.9.67,5.25,2.02s2.02,3.09,2.02,5.25v86.66c0,2.15-.67,3.9-2.02,5.25s-3.09,2.02-5.25,2.02h-7.27v-101.19Z"/>
      <path d="m383.47,449.46h14.53v188.38h-14.53v-188.38Z"/>
      <path d="m412.53,485.79c0-2.15.67-3.9,2.02-5.25s3.09-2.02,5.25-2.02h7.27v130.25h7.27c2.15,0,3.9.67,5.25,2.02s2.02,3.09,2.02,5.25v7.27h-7.27c-2.15,0-3.9-.67-5.25-2.02s-2.02-3.09-2.02-5.25v-7h-7.27c-2.15,0-3.9-.67-5.25-2.02s-2.02-3.09-2.02-5.25v-115.99Zm29.06-14.53c0,2.15-.67,3.9-2.02,5.25s-3.09,2.02-5.25,2.02h-7.27v-7.27c0-2.15.67-3.9,2.02-5.25s3.09-2.02,5.25-2.02h7.27v7.27Zm0-14.53c0-2.15.67-3.9,2.02-5.25,1.35-1.35,3.09-2.02,5.25-2.02h72.39c2.15,0,3.9.67,5.25,2.02s2.02,3.09,2.02,5.25v7.27h-86.93v-7.27Zm7.27,181.12c-2.15,0-3.9-.67-5.25-2.02-1.35-1.35-2.02-3.09-2.02-5.25v-7.27h72.39v7.27c0,2.15-.67,3.9-2.02,5.25s-3.09,2.02-5.25,2.02h-57.86Zm86.66-86.93c2.15,0,3.9.67,5.25,2.02s2.02,3.09,2.02,5.25v7.27h-43.33v-14.53h36.06Zm-7.27,50.59c0-2.15.67-3.9,2.02-5.25,1.35-1.35,3.09-2.02,5.25-2.02h7.27v14.53h-14.26v7.27c0,2.15-.67,3.9-2.02,5.25s-3.09,2.02-5.25,2.02h-7.27v-7.27c0-2.15.67-3.9,2.02-5.25s3.09-2.02,5.25-2.02h7v-7.27Zm7.54-122.99c-2.15,0-3.9-.67-5.25-2.02-1.35-1.35-2.02-3.09-2.02-5.25v-7.27h7c2.15,0,3.9.67,5.25,2.02s2.02,3.09,2.02,5.25v7.27h-7Zm14.26,0c2.15,0,3.9.67,5.25,2.02s2.02,3.09,2.02,5.25v21.53h-14.53v-28.8h7.27Zm0,86.93c2.15,0,3.9.67,5.25,2.02s2.02,3.09,2.02,5.25v14.26c0,2.15-.67,3.9-2.02,5.25-1.35,1.35-3.09,2.02-5.25,2.02h-7.27v-28.8h7.27Zm0,43.33c2.15,0,3.9.67,5.25,2.02s2.02,3.09,2.02,5.25v21.8h-14.53v-29.06h7.27Z"/>
      <path d="m571.85,449.46h14.53v188.38h-14.53v-188.38Z"/>
      <path d="m600.91,449.46h50.59c2.15,0,3.9.67,5.25,2.02s2.02,3.09,2.02,5.25v7.27h-57.86v-14.53Zm57.86,14.53h14.53v173.85h-14.53v-173.85Zm14.53,0v-7.27c0-2.15.67-3.9,2.02-5.25,1.35-1.35,3.09-2.02,5.25-2.02h50.59v14.53h-57.86Z"/>
      <path d="m687.84,616.05c0-2.15.67-3.9,2.02-5.25s3.09-2.02,5.25-2.02h7v29.06h-14.26v-21.8Zm14.26-43.33c0-2.15.67-3.9,2.02-5.25,1.35-1.35,3.09-2.02,5.25-2.02h7.27v36.06c0,2.15-.67,3.9-2.02,5.25-1.35,1.35-3.09,2.02-5.25,2.02h-7.27v-36.06Zm14.53-29.06c0-2.15.67-3.9,2.02-5.25s3.09-2.02,5.25-2.02h7.27v29.06h-14.53v-21.8Zm14.53-43.33c0-2.15.67-3.9,2.02-5.25s3.09-2.02,5.25-2.02h7.27v36.06c0,2.15-.67,3.9-2.02,5.25s-3.1,2.02-5.25,2.02h-7.27v-36.06Zm0,65.13h72.39v7.27c0,2.15-.67,3.9-2.02,5.25-1.35,1.35-3.09,2.02-5.25,2.02h-57.86c-2.15,0-3.9-.67-5.25-2.02-1.35-1.35-2.02-3.1-2.02-5.25v-7.27Zm14.53-94.19c0-2.15.67-3.9,2.02-5.25s3.09-2.02,5.25-2.02h7.27v21.8c0,2.15-.67,3.9-2.02,5.25-1.35,1.35-3.09,2.02-5.25,2.02h-7.27v-21.8Zm14.53-14.53c0-2.15.67-3.9,2.02-5.25s3.09-2.02,5.25-2.02c2.33,0,4.12.67,5.38,2.02,1.25,1.35,1.88,3.09,1.88,5.25v7.27h-14.53v-7.27Zm21.53,7.27c2.15,0,3.9.67,5.25,2.02,1.35,1.35,2.02,3.09,2.02,5.25v21.8h-7c-2.15,0-3.9-.67-5.25-2.02s-2.02-3.09-2.02-5.25v-21.8h7Zm14.53,29.06c2.15,0,3.9.67,5.25,2.02,1.35,1.35,2.02,3.09,2.02,5.25v36.06h-7.27c-2.15,0-3.9-.67-5.25-2.02-1.35-1.35-2.02-3.09-2.02-5.25v-36.06h7.27Zm14.53,43.33c2.15,0,3.9.67,5.25,2.02s2.02,3.09,2.02,5.25v21.8h-14.53v-29.06h7.27Zm7.27,29.06h7.27c2.15,0,3.9.67,5.25,2.02,1.35,1.35,2.02,3.09,2.02,5.25v36.06h-7.27c-2.15,0-3.9-.67-5.25-2.02s-2.02-3.09-2.02-5.25v-36.06Zm21.8,43.33c2.15,0,3.9.67,5.25,2.02s2.02,3.09,2.02,5.25v21.8h-14.53v-29.06h7.27Z"/>
      <path d="m224.15,660.49h14.53v173.85h-7.27c-2.15,0-3.9-.67-5.25-2.02-1.35-1.35-2.02-3.09-2.02-5.25v-166.59Zm14.53,173.85h101.46v14.53h-94.19c-2.15,0-3.9-.67-5.25-2.02s-2.02-3.09-2.02-5.25v-7.27Z"/>
      <path d="m354.67,660.49h14.53v188.38h-14.53v-188.38Z"/>
      <path d="m383.73,660.49h108.72c2.15,0,3.9.67,5.25,2.02s2.02,3.09,2.02,5.25v7.27h-115.99v-14.53Zm0,188.38v-14.53h14.53v7.27c0,2.15-.67,3.9-2.02,5.25-1.35,1.35-3.09,2.02-5.25,2.02h-7.27Zm29.06-14.53h-14.53v-7.27c0-2.15.67-3.9,2.02-5.25s3.09-2.02,5.25-2.02h7.27v14.53Zm0-14.53v-7.27c0-2.15.67-3.9,2.02-5.25s3.09-2.02,5.25-2.02h7.27v7.27c0,2.15-.67,3.9-2.02,5.25s-3.09,2.02-5.25,2.02h-7.27Zm0,14.53h115.99v14.53h-108.72c-2.15,0-3.9-.67-5.25-2.02s-2.02-3.09-2.02-5.25v-7.27Zm14.53-29.06v-21.53c0-2.15.67-3.9,2.02-5.25,1.35-1.35,3.09-2.02,5.25-2.02h7.27v21.53c0,2.15-.67,3.9-2.02,5.25-1.35,1.35-3.1,2.02-5.25,2.02h-7.27Zm14.53-28.8v-7.27c0-2.15.67-3.9,2.02-5.25s3.09-2.02,5.25-2.02h7.27v7.27c0,2.15-.67,3.9-2.02,5.25-1.35,1.35-3.09,2.02-5.25,2.02h-7.27Zm14.53-14.53v-21.8c0-2.15.67-3.9,2.02-5.25s3.09-2.02,5.25-2.02h7.27v21.8c0,2.15-.67,3.9-2.02,5.25s-3.09,2.02-5.25,2.02h-7.27Zm14.53-29.06v-21.53c0-2.15.67-3.9,2.02-5.25,1.35-1.35,3.09-2.02,5.25-2.02h7v21.53c0,2.15-.67,3.9-2.02,5.25s-3.09,2.02-5.25,2.02h-7Zm14.26-28.8v-7.27c0-2.15.67-3.9,2.02-5.25s3.09-2.02,5.25-2.02h7.27v7.27c0,2.15-.67,3.9-2.02,5.25-1.35,1.35-3.09,2.02-5.25,2.02h-7.27Zm14.53-29.06h14.53v7.27c0,2.15-.67,3.9-2.02,5.25s-3.09,2.02-5.25,2.02h-7.27v-14.53Zm29.06-14.53v14.53h-14.53v-7.27c0-2.15.67-3.9,2.02-5.25s3.09-2.02,5.25-2.02h7.27Z"/>
      <path d="m557.85,747.41h-7.27c-2.15,0-3.9-.67-5.25-2.02-1.35-1.35-2.02-3.09-2.02-5.25v-57.86c0-2.15.67-3.9,2.02-5.25,1.35-1.35,3.09-2.02,5.25-2.02h7.27v72.39Zm0,86.93h-7.27c-2.15,0-3.9-.67-5.25-2.02-1.35-1.35-2.02-3.09-2.02-5.25v-57.86c0-2.15.67-3.9,2.02-5.25,1.35-1.35,3.09-2.02,5.25-2.02h7.27v72.39Zm0-159.32v-7.27c0-2.15.67-3.9,2.02-5.25,1.35-1.35,3.09-2.02,5.25-2.02h108.72v14.53h-115.99Zm0,86.93v-14.53h101.46v14.53h-101.46Zm0,72.39h115.99v14.53h-108.72c-2.15,0-3.9-.67-5.25-2.02-1.35-1.35-2.02-3.09-2.02-5.25v-7.27Z"/>
      <path d="m702.63,834.34h-7c-2.15,0-3.9-.67-5.25-2.02s-2.02-3.09-2.02-5.25v-144.79c0-2.15.67-3.9,2.02-5.25s3.09-2.02,5.25-2.02h7v159.32Zm0-159.32v-7.27c0-2.15.67-3.9,2.02-5.25s3.09-2.02,5.25-2.02h72.66c2.15,0,3.9.67,5.25,2.02,1.35,1.35,2.02,3.09,2.02,5.25v7.27h-87.19Zm0,159.32h87.19v7.27c0,2.15-.67,3.9-2.02,5.25s-3.09,2.02-5.25,2.02h-72.66c-2.15,0-3.9-.67-5.25-2.02-1.35-1.35-2.02-3.09-2.02-5.25v-7.27Zm87.19-159.32h7c2.15,0,3.9.67,5.25,2.02s2.02,3.09,2.02,5.25v7.27h-7c-2.15,0-3.9-.67-5.25-2.02s-2.02-3.09-2.02-5.25v-7.27Zm0,159.32v-7.27c0-2.15.67-3.9,2.02-5.25s3.09-2.02,5.25-2.02h7v7.27c0,2.15-.67,3.9-2.02,5.25s-3.09,2.02-5.25,2.02h-7Zm14.26-144.79h7.27c2.15,0,3.9.67,5.25,2.02s2.02,3.09,2.02,5.25v7.27h-7.27c-2.15,0-3.9-.67-5.25-2.02-1.35-1.35-2.02-3.09-2.02-5.25v-7.27Zm0,130.25v-7.27c0-2.15.67-3.9,2.02-5.25s3.09-2.02,5.25-2.02h7.27v7.27c0,2.15-.67,3.9-2.02,5.25s-3.09,2.02-5.25,2.02h-7.27Zm14.53-115.72h7.27c2.15,0,3.9.67,5.25,2.02,1.35,1.35,2.02,3.09,2.02,5.25v86.66c0,2.15-.67,3.9-2.02,5.25-1.35,1.35-3.09,2.02-5.25,2.02h-7.27v-101.19Z"/>
    </g>
    <path class="cls-4" d="m820.58,672.29l-9.7,61.03c-.68,4.3-4.06,7.68-8.36,8.36l-61.03,9.7c-3.74.59-3.74,5.98,0,6.57l61.03,9.7c4.3.68,7.68,4.06,8.36,8.36l9.7,61.03c.59,3.74,5.98,3.74,6.57,0l9.57-60.24c.74-4.67,4.64-8.2,9.37-8.47l169.11-9.71c4.99-.29,4.99-7.64,0-7.92l-169.11-9.71c-4.73-.27-8.62-3.8-9.37-8.47l-9.57-60.24c-.59-3.74-5.98-3.74-6.57,0Z"/>
    <path d="m591.35,949.51c-21.92-4-32.03-7.26-37.85-17.16-6.19-10.53-8.31-29.29-10.71-67.36-.18-2.82-2.29-5-4.84-5s-4.66,2.19-4.84,5c-4.71,74.78-7.91,77.11-48.58,84.53-2.34.43-4.06,2.67-4.06,5.31s1.72,4.88,4.06,5.31c21.92,4,32.03,7.27,37.86,17.18,6.2,10.55,8.32,29.31,10.72,67.38.18,2.82,2.29,5,4.84,5s4.66-2.19,4.84-5c4.72-74.81,7.91-77.15,48.56-84.56,2.34-.43,4.06-2.67,4.06-5.31s-1.72-4.88-4.06-5.31Z"/>
    <path d="m91.73,879.01h50.66c12.54,0,22.07,3.34,28.76,10.37,4.85,5.02,7.69,11.87,7.69,20.4,0,13.21-7.36,21.4-19.23,25.08v.5c13.54,3.18,24.08,12.87,24.08,28.93,0,9.2-3.18,17.05-8.69,22.91-6.69,7.19-17.05,11.37-29.93,11.37h-53.34v-119.55Zm48.82,51.16c14.55,0,23.24-7.19,23.24-19.56,0-11.54-7.86-18.56-21.23-18.56h-35.78v38.12h33.78Zm3.85,54.84c8.53,0,14.71-2.17,18.73-6.02,3.34-3.51,5.35-8.19,5.35-13.88,0-14.88-10.53-22.24-25.08-22.24h-36.62v42.14h37.62Z"/>
    <path d="m199.41,879.01h55.85c21.07,0,35.28,13.21,35.28,32.77,0,14.55-6.35,24.91-20.73,29.59v.5c12.21,4.35,16.05,12.71,17.22,30.43,1.34,19.23,3.34,24.08,5.52,25.58v.67h-16.22c-2.51-2.17-3.01-6.69-4.35-26.75-1.17-17.56-8.19-23.74-24.24-23.74h-33.27v50.5h-15.05v-119.55Zm15.05,56.85h35.45c16.72,0,25.08-8.36,25.08-21.9,0-14.55-6.69-21.9-24.24-21.9h-36.28v43.81Z"/>
    <path d="m309.09,879.01h15.05v119.55h-15.05v-119.55Z"/>
    <path d="m346.88,879.01h15.05v105.67h62.7v13.88h-77.75v-119.55Z"/>
    <path d="m439.51,879.01h15.05v105.67h62.7v13.88h-77.75v-119.55Z"/>
    <path d="m605.51,879.76h16.89l44.14,119.55h-16.39l-12.71-36.45h-47.65l-12.87,36.45h-15.38l43.97-119.55Zm-11.37,70.89h39.13l-13.71-40.13c-2.34-6.69-5.35-16.89-5.35-16.89h-.33s-3.18,10.03-5.52,16.89l-14.21,40.13Z"/>
    <path d="m679.42,879.76h15.88l54.51,83.1c4.01,6.19,8.69,15.38,8.69,15.38h.33v-98.48h14.05v119.55h-15.38l-54.84-83.27c-3.85-5.85-8.86-14.88-8.86-14.88h-.33v98.15h-14.05v-119.55Z"/>
    <path d="m790.78,939.45c0-35.11,21.07-62.37,56.68-62.37,27.92,0,44.81,16.05,47.99,38.12h-14.71c-2.84-14.88-14.71-25.08-33.61-25.08-26.25,0-40.96,21.23-40.96,49.32s16.22,48.99,41.13,48.99c22.57,0,33.27-15.38,34.78-32.94h14.88c-.17,11.87-5.85,25.25-14.38,33.61-8.36,8.19-20.57,12.54-35.78,12.54-33.94,0-56.01-25.92-56.01-62.2Z"/>
    <path d="m913.84,879.76h84.44v13.21h-69.39v37.79h63.04v12.71h-63.04v41.97h71.4v13.88h-86.44v-119.55Z"/>
    <path class="cls-4" d="m190.16,906.17c8.81-6.09,13.35-8.42,18.7-7.03,5.69,1.47,12.78,7.13,26.54,19.26,1.02.9,2.48.92,3.34.06s.84-2.33-.06-3.34c-23.81-27.02-23.52-28.9-12.22-45.24.65-.94.47-2.29-.42-3.18s-2.24-1.07-3.18-.42c-8.81,6.09-13.36,8.42-18.71,7.03-5.69-1.48-12.79-7.13-26.54-19.26-1.02-.9-2.48-.92-3.34-.06s-.84,2.33.06,3.34c23.82,27.03,23.53,28.91,12.24,45.24-.65.94-.47,2.29.42,3.18s2.24,1.07,3.18.42Z"/>
  </g>
  <g>
    <path d="m116.28,18.96V0H0v171.42h21.59v-80.82h78.85v-18.18H21.59V18.96h94.69Z"/>
    <path d="m251.05,133.8c-1.65-25.41-7.16-37.41-24.69-43.65v-.72c20.63-6.69,29.75-21.54,29.75-42.42,0-28.04-20.41-47-50.61-47h-80.05v171.42h21.54v-72.41h47.73c23.03,0,33.08,8.86,34.73,34.06,1.96,28.75,2.68,35.2,6.24,38.34h23.29v-.98c-3.15-2.16-6.03-9.06-7.94-36.65Zm-53.25-52.26h-50.81V18.71h52.06c25.14,0,34.73,10.57,34.73,31.38,0,19.43-11.95,31.43-35.98,31.43Z"/>
    <path d="m590.12,0l-55.14,142.4h-.47L478.9,0h-27.57v171.42h19.43V30.47h.47s4.33,12.94,7.68,21.59l47,119.36h16.55l46.95-119.36c3.15-8.19,7.68-21.59,7.68-21.59h.47v140.95h20.61V0h-28.04Z"/>
    <path class="cls-4" d="m435.44,151.22c-25.89-32.11-37.44-48.9-37.44-63.55,0-14.65,11.55-31.45,37.44-63.55,3.98-4.93,3.6-12.07-.88-16.55-4.48-4.48-11.62-4.86-16.55-.88-32.1,25.89-48.9,37.43-63.56,37.43-14.66,0-31.46-11.56-63.57-37.45-4.93-3.98-12.07-3.6-16.55.88-4.48,4.48-4.86,11.62-.88,16.55,25.89,32.11,37.44,48.91,37.44,63.58,0,14.67-11.55,31.47-37.44,63.58-3.98,4.93-3.6,12.07.88,16.55s11.62,4.86,16.55.88c32.11-25.89,48.91-37.45,63.57-37.45,14.67,0,31.46,11.54,63.56,37.43,4.93,3.98,12.07,3.6,16.55-.88,4.48-4.48,4.86-11.62.88-16.55Z"/>
  </g>
</svg>