<?xml version="1.0" encoding="UTF-8" standalone="no"?>
<svg
   id="Layer_4"
   data-name="Layer 4"
   viewBox="0 0 2338839 2393469.5"
   version="1.1"
   sodipodi:docname="LOGO-WEB.svg"
   inkscape:version="1.2.2 (732a01da63, 2022-12-09)"
   width="2338839"
   height="2393469.5"
   xmlns:inkscape="http://www.inkscape.org/namespaces/inkscape"
   xmlns:sodipodi="http://sodipodi.sourceforge.net/DTD/sodipodi-0.dtd"
   xmlns="http://www.w3.org/2000/svg"
   xmlns:svg="http://www.w3.org/2000/svg">
  <sodipodi:namedview
     id="namedview11"
     pagecolor="#ffffff"
     bordercolor="#000000"
     borderopacity="0.25"
     inkscape:showpageshadow="2"
     inkscape:pageopacity="0.0"
     inkscape:pagecheckerboard="0"
     inkscape:deskcolor="#d1d1d1"
     showgrid="false"
     inkscape:zoom="0.28269948"
     inkscape:cx="2594.6281"
     inkscape:cy="1250.4445"
     inkscape:window-width="2400"
     inkscape:window-height="1261"
     inkscape:window-x="2391"
     inkscape:window-y="-9"
     inkscape:window-maximized="1"
     inkscape:current-layer="Layer_4" />
  <defs
     id="defs4">
    <style
       id="style2">
      .cls-1 {
        fill: #adaef3;
      }
    </style>
  </defs>
  <g
     id="g291"
     inkscape:export-filename="..\..\..\Outputs\Website\charles\src\assets\logo.svg"
     inkscape:export-xdpi="96"
     inkscape:export-ydpi="96"
     transform="translate(-7419773.1,-3377921)">
    <path
       class="cls-1"
       d="m 3676.6575,1311.6559 c -25.77,-12.88 -53.65,-14.81 -79.94,-14.98 -0.67,0 -1.34,-0.01 -2,-0.01 -74.77,-89.33 -187.1,-146.14 -312.7,-146.14 -172.25,0 -319.56,106.86 -379.23,257.9 -5.42,-1.23 -11.17,-2.55 -17.29,-3.98 -3.06,-0.71 -6.2,-1.08 -9.33,-1.08 -18.11,0 -33.86,11.64 -39.18,28.95 -6.32,20.5 4.41,42.61 24.42,50.33 6.53,2.52 12.76,4.94 18.69,7.27 -3.74,22.18 -5.69,44.97 -5.69,68.22 0,91.36 30.06,175.69 80.82,243.66 -1.44,8.3 -2.53,16.61 -3.28,24.93 -1.82,20.14 -2.34,49.87 14.11,75.4 13.11,20.33 36.65,33.47 59.98,33.47 10.85,0 21.36,-2.86 30.42,-8.28 6.75,-3.69 13.68,-9.19 19.62,-17.36 60.43,35.46 130.81,55.79 205.94,55.79 20.45,0 40.55,-1.51 60.2,-4.43 16.22,-2.39 32.13,-5.74 47.67,-10 45.43,-12.44 87.7,-32.54 125.32,-58.83 8.08,4.96 17.33,11.33 27.77,18.62 6.86,4.79 14.91,7.32 23.28,7.32 10.92,0 21.55,-4.48 29.17,-12.31 13.96,-14.35 15.46,-36.45 3.58,-52.54 -6.08,-8.24 -11.12,-15.29 -15.24,-21.41 65.77,-72.38 105.86,-168.52 105.86,-274.03 0,-31.47 -3.57,-62.1 -10.32,-91.51 4.04,-2.35 8.01,-4.94 11.88,-7.83 22.33,-16.67 36.01,-40.2 37.54,-64.56 2.37,-37.88 -24.44,-68.77 -52.07,-82.58 z"
       id="path6"
       inkscape:export-filename="..\..\..\Outputs\Website\charles\src\assets\logo.svg"
       inkscape:export-xdpi="96"
       inkscape:export-ydpi="96" />
    <path
       d="m 3663.2475,1338.4959 c -20.39,-10.19 -43.92,-11.67 -66.72,-11.82 -67.61,-0.43 -135.28,9.34 -200.03,28.81 -0.87,0.26 -1.64,-0.64 -1.23,-1.46 v -0.02 c 11.49,-23.41 19.29,-49.15 18.49,-75.22 -0.79,-26.07 -10.9,-52.49 -30.55,-69.64 -19.39,-16.92 -45.78,-23.36 -71.37,-26.09 -66.38,-7.08 -134.9,7.64 -192.52,41.37 -57.61,33.73 -104,86.27 -130.33,147.62 -9.74,22.71 -16.84,47.22 -16.29,71.76 0.1,4.53 -3.89,8.05 -8.37,7.4 -21.69,-3.14 -49.36,-9.09 -85.66,-17.54 -5.63,-1.31 -11.32,1.95 -13.02,7.49 -1.7,5.53 1.17,11.43 6.56,13.51 143.27,55.3 145.71,63.65 133.06,156.34 -0.73,5.34 2.52,10.43 7.67,12.01 5.16,1.59 10.7,-0.79 13.1,-5.62 22.47,-45.18 35.61,-65.15 58.88,-71.82 14.14,-4.06 32.64,-3.61 60.09,0.83 3.53,0.57 4.82,4.97 2.18,7.37 -9.97,9.03 -19.79,18.24 -29.38,27.69 -68.59,67.55 -127.36,152.07 -135.99,247.95 -1.75,19.37 -1.07,40.11 9.46,56.46 10.53,16.34 33.8,25.72 50.27,15.39 24.12,-12.57 22.09,-55.92 18.68,-80.92 -2.68,-19.58 -2.66,-39.44 0.07,-59.02 0.15,-1.07 0.31,-2.15 0.47,-3.25 6.97,-46.81 27.03,-90.74 57.64,-126.85 21.81,-25.74 44.8,-50.22 69.93,-73.01 1.88,-1.7 4.47,-2.38 6.95,-1.83 8.9,1.97 18.42,4.15 28.63,6.53 5.64,1.3 11.33,-1.96 13.02,-7.49 1.7,-5.53 -1.16,-11.43 -6.55,-13.51 -3.27,-1.26 -6.47,-2.5 -9.6,-3.72 -2.8,-1.09 -3.35,-4.8 -0.99,-6.66 1.31,-1.04 2.63,-2.08 3.96,-3.11 13.6,-10.59 32.28,-12.54 47.5,-4.44 3.26,1.73 6.3,3.88 9.01,6.41 16.36,15.32 19.03,40.13 18.31,62.54 -1.26,39.06 -9.57,77.55 -12.9,116.48 -3.32,38.94 -1.27,79.77 16.79,114.43 13.19,25.33 34.82,46.11 60.45,58.64 6.2,3.03 8,11.01 3.59,16.32 -4.87,5.85 -10.06,12.03 -15.59,18.56 -3.63,4.29 -3.32,10.64 0.7,14.56 4.02,3.92 10.38,4.05 14.58,0.31 16.13,-14.4 30.09,-26.68 42.41,-36.99 51.3,-42.96 73.98,-51.75 105.36,-37.52 13.01,5.9 27.52,15.75 46.18,28.77 4.29,3 10.12,2.44 13.78,-1.31 3.65,-3.75 4.05,-9.59 0.94,-13.8 -29.09,-39.41 -40.52,-59.6 -35.98,-82.66 4.82,-24.53 27.5,-54.49 76.49,-112.4 3.63,-4.29 3.32,-10.65 -0.7,-14.57 -4.02,-3.91 -10.38,-4.05 -14.58,-0.31 -111.13,99.24 -119.43,97.66 -193.94,45.67 -4.29,-3 -10.12,-2.44 -13.77,1.3 -3.66,3.75 -4.05,9.6 -0.94,13.81 29.09,39.41 40.51,59.6 35.97,82.68 -1.81,9.2 -6.12,19.15 -13.38,31.05 -2.61,4.28 -7.88,6.1 -12.62,4.45 -14.04,-4.9 -27.12,-12.55 -38.13,-22.55 -22.41,-20.36 -35.91,-50.18 -36.43,-80.44 -0.58,-33.94 14.22,-66.1 19.94,-99.57 7.11,-41.52 -0.27,-85.39 -20.57,-122.3 l -0.03,-0.05 c -1.23,-2.24 0.32,-4.99 2.88,-5.09 101.23,-4.02 201.88,-22.31 298.03,-54.23 16.16,-5.37 32.48,-11.25 46.13,-21.44 13.65,-10.19 24.48,-25.4 25.54,-42.4 1.43,-22.75 -15.15,-43.67 -35.54,-53.86 z m -476.83,181.01 c -2.44,2.07 -5.85,2.6 -8.8,1.36 -36.36,-15.33 -58.21,-27.31 -70.63,-41.28 -9.84,-11.05 -13.77,-23.34 -14.34,-39.53 -0.51,-14.45 1.68,-31.99 4.75,-54.5 0.73,-5.34 -2.52,-10.43 -7.67,-12.01 -5.16,-1.59 -10.7,0.79 -13.11,5.62 -8.49,17.08 -15.65,30.55 -22.53,41.07 -2.82,4.32 -9.53,1.77 -8.81,-3.34 5.99,-42.7 23.21,-83.85 49.95,-117.7 38.18,-48.29 95.32,-81.17 156.26,-89.89 27.08,-3.87 55.49,-2.99 80.7,7.64 25.2,10.63 46.75,32.11 52.81,58.79 4.82,21.28 -0.44,43.91 -10.64,63.18 -10.21,19.28 -25.06,35.68 -40.4,51.19 -46.02,46.54 -97.65,87.03 -147.55,129.41 z m 468.91,-108.9 c -20.75,27.51 -73.28,38.69 -146.05,56.26 -6.25,1.51 -12.57,2.79 -18.91,3.83 -88.46,14.5 -170.11,20.08 -174.62,-6.32 -4.66,-27.4 66.74,-82.33 158.95,-98.04 70.73,-12.04 140.01,-19.43 171.81,-0.84 15.92,9.31 19.92,30.39 8.81,45.12 z"
       id="path8" />
  </g>
</svg>
